<?xml version="1.0" standalone="no"?>
<!DOCTYPE svg PUBLIC "-//W3C//DTD SVG 1.1//EN" "http://www.w3.org/Graphics/SVG/1.1/DTD/svg11.dtd" >
<svg xmlns="http://www.w3.org/2000/svg" xmlns:xlink="http://www.w3.org/1999/xlink" version="1.1">
<metadata>
Created by FontForge 20230101 at Thu Jan 20 19:11:23 2005
 By Unknown
Digitized data (c) Monotype Imaging. All rights reserved..
</metadata>
<defs>
<font id="SackersGothicStd-Medium" horiz-adv-x="889" >
  <font-face 
    font-family="Sackers Gothic Std"
    font-weight="500"
    font-stretch="normal"
    units-per-em="1000"
    panose-1="2 11 6 4 2 2 2 6 2 4"
    ascent="760"
    descent="-240"
    x-height="518"
    cap-height="748"
    bbox="-216 -252 1680 1033"
    underline-thickness="50"
    underline-position="-100"
    stemh="88"
    stemv="88"
    unicode-range="U+0020-FB06"
  />
<missing-glyph horiz-adv-x="500" 
d="M12 0v665h475v-665h-475zM88 618l162 -243l161 243h-323zM60 575v-484c0 -1 161 242 161 242zM440 575l-162 -242l162 -243v485zM411 48l-161 242l-162 -242h323z" />
    <glyph glyph-name="fi" unicode="fi" horiz-adv-x="969" 
d="M820 0h-88v519h88v-519zM606 430h-363v-119h214v-88h-214v-223h-88v518h451v-88z" />
    <glyph glyph-name="fl" unicode="fl" horiz-adv-x="1174" 
d="M1155 0h-404v518h88v-430h316v-88zM606 430h-363v-119h214v-88h-214v-223h-88v518h451v-88z" />
    <glyph glyph-name=".notdef" horiz-adv-x="500" 
d="M12 0v665h475v-665h-475zM88 618l162 -243l161 243h-323zM60 575v-484c0 -1 161 242 161 242zM440 575l-162 -242l162 -243v485zM411 48l-161 242l-162 -242h323z" />
    <glyph glyph-name="space" unicode=" " horiz-adv-x="370" 
 />
    <glyph glyph-name="exclam" unicode="!" horiz-adv-x="352" 
d="M231 747l-23 -569h-64l-21 569h108zM240 45c0 -35 -28 -63 -63 -63s-64 27 -64 63c0 35 28 64 63 64s64 -29 64 -64z" />
    <glyph glyph-name="quotedbl" unicode="&#x22;" horiz-adv-x="462" 
d="M363 757l-22 -253h-55l-22 253h99zM198 757l-22 -253h-55l-22 253h99z" />
    <glyph glyph-name="numbersign" unicode="#" horiz-adv-x="648" 
d="M641 476l-23 -69h-130l-47 -124h129l-23 -66h-130l-77 -207h-72l77 207h-146l-78 -207h-72l78 207h-128l22 66h129l47 124h-128l23 69h129l65 173h72l-65 -173h147l65 173h72l-65 -173h129zM416 407h-147l-47 -124h147z" />
    <glyph glyph-name="dollar" unicode="$" 
d="M770 203c0 -159 -147 -219 -269 -219v-72h-78v71c-127 5 -215 52 -304 141l56 67c78 -76 138 -112 248 -119v225h-22c-58 0 -114 4 -163 36c-47 30 -69 80 -69 135c0 145 127 200 253 206v78h78v-78c88 -5 168 -34 235 -92l-50 -72c-66 47 -105 65 -185 78v-199
c131 0 270 -26 270 -186zM423 590c-18 -1 -34 -3 -51 -7c-58 -12 -109 -43 -109 -108c0 -78 83 -85 159 -85zM673 200c0 90 -107 94 -173 97v-223c61 0 173 28 173 126z" />
    <glyph glyph-name="percent" unicode="%" horiz-adv-x="1204" 
d="M1140 191c0 -131 -118 -207 -240 -207c-117 0 -236 80 -236 205c0 133 112 211 238 211c122 0 238 -80 238 -209zM934 718l-551 -758h-85l550 758h86zM539 460c0 -133 -117 -208 -240 -208c-118 0 -236 80 -236 206c0 132 112 211 238 211c121 0 238 -81 238 -209z
M1063 192c0 85 -79 138 -162 138c-87 0 -160 -52 -160 -140c0 -85 81 -135 163 -135c84 0 159 51 159 137zM463 460c0 85 -79 137 -163 137c-86 0 -160 -51 -160 -138c0 -86 81 -136 164 -136s158 52 158 137h1z" />
    <glyph glyph-name="ampersand" unicode="&#x26;" horiz-adv-x="870" 
d="M803 0h-123l-56 59c-89 -56 -135 -73 -241 -73c-128 0 -288 64 -288 214c0 116 105 173 204 199c-28 31 -56 80 -56 128c0 100 88 141 198 141c87 0 170 -21 208 -49l-40 -81c-26 18 -95 47 -164 47c-55 0 -114 -15 -114 -59c0 -28 16 -49 31 -64l268 -279
c18 15 81 95 94 121l72 -47c-13 -29 -77 -116 -104 -139zM560 127l-197 204c-58 -16 -180 -54 -180 -131c0 -93 130 -126 203 -126c66 0 121 13 174 53z" />
    <glyph glyph-name="quoteright" unicode="&#x2019;" horiz-adv-x="389" 
d="M295 655c0 -82 -55 -132 -90 -160c-5 -5 -23 -15 -29 -15c-13 0 -22 7 -22 25c0 14 2 21 14 28c26 16 57 46 57 81c0 17 -6 22 -21 22c-39 0 -62 28 -62 68c0 33 32 60 64 60c57 0 89 -58 89 -109z" />
    <glyph glyph-name="parenleft" unicode="(" horiz-adv-x="426" 
d="M354 728c-70 -48 -181 -198 -181 -357c0 -150 109 -305 175 -356l-41 -37c-119 97 -216 243 -216 396c0 154 98 310 232 393z" />
    <glyph glyph-name="parenright" unicode=")" horiz-adv-x="426" 
d="M328 374c0 -153 -96 -299 -216 -396l-40 37c65 51 174 206 174 356c0 159 -111 309 -181 357l31 39c134 -83 232 -239 232 -393z" />
    <glyph glyph-name="asterisk" unicode="*" horiz-adv-x="481" 
d="M412 501l-28 -49l-111 63v-128h-57v128l-115 -65l-29 50l113 65l-111 64l28 49l114 -63v130h57v-130l110 64l29 -50l-112 -64z" />
    <glyph glyph-name="plus" unicode="+" 
d="M682 198h-201v-199h-72v198h-202v72h201v199h72v-198h202v-72z" />
    <glyph glyph-name="comma" unicode="," horiz-adv-x="389" 
d="M302 0c0 -82 -55 -132 -90 -160c-5 -5 -23 -15 -29 -15c-13 0 -22 7 -22 25c0 14 2 21 14 28c26 16 57 46 57 81c0 17 -6 22 -21 22c-39 0 -62 28 -62 68c0 33 32 60 64 60c57 0 89 -58 89 -109z" />
    <glyph glyph-name="hyphen" unicode="-" horiz-adv-x="610" 
d="M471 209h-332v96h332v-96z" />
    <glyph glyph-name="period" unicode="." horiz-adv-x="370" 
d="M254 45c0 -38 -31 -68 -68 -68c-38 0 -70 30 -70 68c0 37 31 69 68 69c39 0 70 -31 70 -69z" />
    <glyph glyph-name="slash" unicode="/" horiz-adv-x="630" 
d="M578 747l-442 -766h-90l443 766h89z" />
    <glyph glyph-name="zero" unicode="0" 
d="M828 325c0 -220 -176 -341 -383 -341c-206 0 -384 123 -384 343c0 215 172 341 380 341c207 0 387 -122 387 -343zM739 325c0 173 -146 254 -303 254c-153 0 -286 -88 -286 -252c0 -170 139 -254 296 -254c155 0 293 83 293 252z" />
    <glyph glyph-name="one" unicode="1" horiz-adv-x="611" 
d="M351 0h-88v655h88v-655z" />
    <glyph glyph-name="two" unicode="2" 
d="M746 0h-599c0 11 -1 23 -1 34c0 174 84 330 271 350c45 5 90 9 135 14c43 5 104 25 104 78c0 90 -128 106 -194 106c-106 0 -166 -22 -258 -71l-41 79c114 63 170 82 301 82c121 0 280 -47 280 -194c0 -107 -90 -161 -187 -171c-46 -5 -92 -9 -138 -14
c-118 -12 -162 -97 -179 -205h506v-88z" />
    <glyph glyph-name="three" unicode="3" 
d="M794 185c0 -166 -237 -201 -360 -201c-63 0 -126 6 -187 24c-66 19 -98 37 -154 77l48 73c100 -63 175 -85 294 -85c38 0 76 3 114 9c47 8 156 35 156 99c0 63 -85 95 -135 106c-34 8 -69 11 -104 11h-65v88h65c56 0 196 18 196 97c0 83 -162 95 -218 95
c-96 0 -145 -20 -230 -60l-41 77c95 50 166 72 274 72c109 0 304 -36 304 -179c0 -61 -35 -104 -81 -141c65 -34 124 -83 124 -162z" />
    <glyph glyph-name="four" unicode="4" 
d="M822 168h-153v-168h-88v168h-476l-43 87l514 403h93v-403h153v-87zM581 255v299l-382 -299h382z" />
    <glyph glyph-name="five" unicode="5" 
d="M775 208c0 -112 -105 -179 -202 -206c-46 -13 -94 -18 -142 -18c-148 0 -210 22 -336 98l52 72c73 -44 174 -81 275 -81c37 0 73 4 109 12c60 13 156 52 156 126c0 99 -151 127 -225 127c-113 0 -174 -24 -273 -74l-60 52v338h597v-88h-509v-190c91 33 149 51 246 51
c47 0 94 -6 138 -20c91 -29 174 -96 174 -199z" />
    <glyph glyph-name="six" unicode="6" 
d="M813 201c0 -114 -121 -180 -217 -203c-43 -10 -86 -15 -130 -15c-203 0 -385 118 -385 336c0 216 200 349 401 349c117 0 204 -34 299 -102l-50 -70c-82 54 -149 82 -248 82c-151 0 -306 -89 -313 -254c121 63 181 82 318 82c125 0 325 -46 325 -205zM724 202
c0 60 -86 92 -133 103c-35 9 -70 12 -106 12c-126 0 -189 -25 -298 -86c41 -115 165 -158 277 -158c34 0 68 3 101 10c55 12 159 49 159 119z" />
    <glyph glyph-name="seven" unicode="7" horiz-adv-x="907" 
d="M737 587l-409 -587h-106l394 566h-484v89h551z" />
    <glyph glyph-name="eight" unicode="8" 
d="M802 177c0 -170 -242 -195 -365 -195c-130 0 -343 34 -343 204c0 81 62 136 133 163c-50 36 -84 78 -84 142c0 154 179 179 297 179c121 0 315 -21 315 -181c0 -64 -32 -105 -84 -140c73 -35 131 -86 131 -172zM666 488c0 88 -163 94 -221 94c-54 0 -214 -8 -214 -90
c0 -91 164 -103 226 -103c59 0 209 14 209 99zM713 181c0 68 -108 100 -160 109c-35 6 -70 9 -106 9c-69 0 -265 -17 -265 -118c0 -98 200 -110 265 -110s266 11 266 110z" />
    <glyph glyph-name="nine" unicode="9" 
d="M812 339c0 -219 -199 -354 -403 -354c-55 0 -109 9 -161 27c-56 19 -89 39 -136 74l51 72c90 -61 139 -83 248 -83c147 0 308 91 313 253c-122 -63 -181 -80 -318 -80c-124 0 -323 45 -323 203c0 109 109 175 202 200c46 13 95 18 143 18c198 0 384 -115 384 -330z
M708 421c-50 118 -159 159 -280 159c-35 0 -71 -4 -105 -12c-53 -12 -151 -49 -151 -116c0 -94 162 -116 229 -116c132 0 192 21 307 85z" />
    <glyph glyph-name="colon" unicode=":" horiz-adv-x="370" 
d="M255 430c0 -38 -32 -69 -69 -69c-38 0 -68 31 -68 68s31 69 68 69c38 0 69 -31 69 -68zM252 45c0 -38 -31 -68 -68 -68c-38 0 -69 30 -69 68s32 68 69 68c38 0 67 -31 67 -68h1z" />
    <glyph glyph-name="semicolon" unicode=";" horiz-adv-x="389" 
d="M257 430c0 -38 -31 -69 -69 -69s-68 30 -68 68c0 37 30 69 68 69c37 0 69 -30 69 -68zM276 0c0 -82 -55 -132 -90 -160c-5 -5 -23 -15 -29 -15c-13 0 -22 7 -22 25c0 14 2 21 14 28c26 16 57 46 57 81c0 17 -6 22 -21 22c-39 0 -62 28 -62 68c0 33 32 60 64 60
c57 0 89 -58 89 -109z" />
    <glyph glyph-name="less" unicode="&#x3c;" 
d="M642 21l-395 172v75l395 172v-77l-307 -132l307 -133v-77z" />
    <glyph glyph-name="equal" unicode="=" 
d="M682 278l-475 -1v73h475v-72zM682 117h-475v73h475v-73z" />
    <glyph glyph-name="greater" unicode="&#x3e;" 
d="M642 193l-395 -172v77l307 132l-307 133v77l395 -172v-75z" />
    <glyph glyph-name="question" unicode="?" horiz-adv-x="593" 
d="M508 577c0 -82 -47 -138 -109 -185l-101 -76c-19 -15 -24 -34 -24 -57v-74h-83v74c0 46 3 78 41 108l106 82c39 30 77 73 77 125c0 91 -112 107 -181 107c-61 0 -108 -7 -167 -24v87c59 16 123 20 184 20c129 0 257 -34 257 -187zM296 45c0 -35 -28 -63 -63 -63
s-64 28 -64 63s28 64 63 64c36 0 64 -28 64 -64z" />
    <glyph glyph-name="at" unicode="@" horiz-adv-x="1074" 
d="M992 350c0 -125 -93 -210 -191 -210c-83 0 -122 23 -142 51c-25 -29 -72 -51 -145 -51s-164 29 -164 121c0 102 89 118 215 118h72c0 15 -1 26 -7 39c-12 28 -46 37 -87 37c-55 0 -83 -11 -95 -56h-77c14 106 108 119 181 119c118 0 166 -52 166 -156v-82
c0 -49 32 -72 85 -72c56 0 106 54 106 143c0 196 -166 284 -376 284c-192 0 -351 -102 -351 -306c0 -209 165 -315 361 -315c101 0 156 29 185 52l49 -63c-32 -25 -116 -69 -233 -69c-228 0 -449 141 -449 385c0 261 192 395 442 395c249 0 455 -119 455 -364zM638 316h-65
c-27 0 -55 0 -82 -2c-42 -3 -64 -15 -64 -55c0 -41 44 -54 87 -54c74 0 123 30 123 104z" />
    <glyph glyph-name="A" unicode="A" horiz-adv-x="833" 
d="M813 0h-98l-122 257h-360l-118 -257h-98l356 747h90zM554 344l-137 296l-140 -296h277z" />
    <glyph glyph-name="B" unicode="B" horiz-adv-x="907" 
d="M841 206c0 -60 -25 -114 -70 -154c-52 -46 -97 -52 -200 -52h-418v747h418c131 0 236 -64 236 -205c0 -66 -23 -109 -73 -152c67 -41 107 -104 107 -184zM718 547c0 44 -24 84 -70 103c-13 5 -36 9 -72 9h-334v-233h329c80 0 147 32 147 121zM753 207
c0 106 -93 131 -182 131h-329v-250h329c92 0 115 9 141 30c28 22 41 54 41 89z" />
    <glyph glyph-name="C" unicode="C" horiz-adv-x="944" 
d="M876 130c-105 -104 -208 -149 -360 -149c-230 0 -416 155 -416 392c0 231 177 393 404 393c138 0 264 -51 361 -149l-63 -61c-86 76 -182 123 -303 123c-170 0 -311 -132 -311 -304c0 -189 153 -306 333 -306c120 0 212 42 295 128z" />
    <glyph glyph-name="D" unicode="D" horiz-adv-x="926" 
d="M864 371c0 -185 -141 -371 -336 -371h-378v747h368c273 0 346 -267 346 -376zM776 374c0 159 -109 285 -258 285h-280v-571h290c147 0 248 150 248 286z" />
    <glyph glyph-name="E" unicode="E" horiz-adv-x="852" 
d="M789 0h-638v747h616v-88h-527v-228h277v-88h-277v-255h549v-88z" />
    <glyph glyph-name="F" unicode="F" horiz-adv-x="815" 
d="M755 660h-520v-238h325v-89h-325v-333h-88v747h608v-87z" />
    <glyph glyph-name="G" unicode="G" horiz-adv-x="907" 
d="M843 206c0 -109 -101 -178 -195 -206c-45 -13 -91 -19 -138 -19c-229 0 -414 155 -414 391c0 234 188 390 414 390c133 0 225 -47 318 -139l-60 -63c-79 73 -149 114 -260 114c-176 0 -325 -121 -325 -303c0 -185 150 -302 327 -302c30 0 61 3 91 9c65 14 154 55 154 134
v105h-258v88h346v-199z" />
    <glyph glyph-name="H" unicode="H" horiz-adv-x="963" 
d="M810 0h-89v346h-480v-346h-89v747h89v-313h480v313h89v-747z" />
    <glyph glyph-name="I" unicode="I" horiz-adv-x="389" 
d="M241 0h-88v748h88v-748z" />
    <glyph glyph-name="J" unicode="J" horiz-adv-x="815" 
d="M660 270c0 -191 -146 -287 -325 -287c-80 0 -165 21 -227 74c-42 37 -63 79 -87 129l79 40c55 -111 107 -154 236 -154c126 0 236 59 236 198v477h88v-477z" />
    <glyph glyph-name="K" unicode="K" horiz-adv-x="833" 
d="M816 0h-105l-264 419l-207 -197v-222h-89v747h89v-408l415 408h117l-262 -262z" />
    <glyph glyph-name="L" unicode="L" horiz-adv-x="722" 
d="M708 0h-559v747h88v-659h471v-88z" />
    <glyph glyph-name="M" unicode="M" horiz-adv-x="1037" 
d="M888 0h-89v572l-284 -509l-279 509v-572h-88v747h90l277 -505l286 505h87v-747z" />
    <glyph glyph-name="N" unicode="N" horiz-adv-x="963" 
d="M815 0h-89l-487 608v-608h-88v747h88l487 -616v616h89v-747z" />
    <glyph glyph-name="O" unicode="O" horiz-adv-x="1000" 
d="M901 375c0 -228 -181 -394 -406 -394c-218 0 -401 168 -401 389c0 224 187 394 407 394s400 -165 400 -389zM812 373c0 174 -138 302 -310 302c-173 0 -319 -128 -319 -305c0 -173 145 -301 314 -301c173 0 315 127 315 304z" />
    <glyph glyph-name="P" unicode="P" horiz-adv-x="852" 
d="M795 534c0 -63 -25 -131 -75 -171c-46 -37 -104 -45 -161 -45h-326v-318h-88v747h414c140 0 236 -65 236 -213zM707 535c0 42 -16 86 -53 108c-17 10 -41 16 -95 16h-326v-252h326c89 0 148 32 148 128z" />
    <glyph glyph-name="Q" unicode="Q" horiz-adv-x="1000" 
d="M902 371c0 -138 -62 -242 -171 -323l80 -84l-78 -49l-85 90c-53 -17 -92 -25 -148 -25c-221 0 -398 168 -398 391s180 392 400 392c221 0 400 -169 400 -392zM814 373c0 173 -141 302 -311 302s-314 -130 -314 -303c0 -179 143 -304 318 -304c27 0 44 1 70 9l-48 52
l79 47l60 -62c93 60 146 147 146 259z" />
    <glyph glyph-name="R" unicode="R" 
d="M828 527c0 -65 -28 -130 -78 -172c-37 -31 -68 -38 -114 -46l174 -309h-101l-173 309h-297v-309h-88v747h374c121 0 155 -4 212 -41c58 -38 91 -111 91 -179zM740 526c0 98 -76 133 -163 133h-338v-262h322c67 0 98 2 128 23c33 23 51 66 51 106z" />
    <glyph glyph-name="S" unicode="S" horiz-adv-x="833" 
d="M775 217c0 -181 -208 -236 -354 -236c-161 0 -267 46 -379 161l63 62c98 -97 176 -134 315 -134c92 0 266 27 266 150c0 90 -93 126 -169 127l-158 2c-94 1 -140 12 -185 41c-49 32 -77 90 -77 148c0 165 186 225 322 225c122 0 219 -36 316 -110l-55 -69
c-86 61 -158 90 -264 90c-80 0 -230 -32 -230 -136c0 -31 17 -62 44 -77c34 -18 57 -23 152 -24l111 -1c52 0 105 -5 153 -25c77 -32 129 -111 129 -194z" />
    <glyph glyph-name="T" unicode="T" horiz-adv-x="759" 
d="M699 659h-274v-659h-88v659h-273v88h635v-88z" />
    <glyph glyph-name="U" unicode="U" horiz-adv-x="963" 
d="M815 300c0 -64 -2 -133 -37 -189c-60 -98 -187 -130 -295 -130c-87 0 -173 17 -242 74c-81 68 -88 142 -88 243v449h88v-447c0 -80 4 -119 35 -156c49 -58 135 -74 207 -74c76 0 170 14 215 82c18 27 29 54 29 148v447h88v-447z" />
    <glyph glyph-name="V" unicode="V" horiz-adv-x="833" 
d="M811 747l-357 -747h-77l-356 747h99l297 -621l295 621h99z" />
    <glyph glyph-name="W" unicode="W" horiz-adv-x="1000" 
d="M988 747l-242 -747h-81l-162 576l-151 -576h-82l-255 747h91l200 -591l153 591h84l166 -591l188 591h91z" />
    <glyph glyph-name="X" unicode="X" horiz-adv-x="778" 
d="M766 0h-113l-260 336l-263 -336h-113l320 407l-264 340h112l208 -270l213 270h109l-265 -340z" />
    <glyph glyph-name="Y" unicode="Y" horiz-adv-x="759" 
d="M745 747l-321 -403v-344h-88v344l-317 403h114l249 -316l249 316h114z" />
    <glyph glyph-name="Z" unicode="Z" horiz-adv-x="704" 
d="M676 0h-615l-38 76l520 583h-482v88h570l38 -73l-520 -586h527v-88z" />
    <glyph glyph-name="bracketleft" unicode="[" horiz-adv-x="426" 
d="M301 0h-164v747h164v-60h-85v-627h85v-60z" />
    <glyph glyph-name="backslash" unicode="\" horiz-adv-x="630" 
d="M589 -19h-90l-442 766h89z" />
    <glyph glyph-name="bracketright" unicode="]" horiz-adv-x="426" 
d="M301 0h-164v60h85v627h-85v60h164v-747z" />
    <glyph glyph-name="asciicircum" unicode="^" 
d="M655 352h-78l-132 245l-133 -245h-78l173 316h75z" />
    <glyph glyph-name="underscore" unicode="_" horiz-adv-x="500" 
d="M500 -125h-500v49h500v-49z" />
    <glyph glyph-name="quoteleft" unicode="&#x2018;" horiz-adv-x="389" 
d="M245 540c0 -33 -32 -60 -63 -60c-58 0 -90 58 -90 109c0 82 55 132 90 160c5 5 23 15 29 15c13 0 22 -7 22 -25c0 -14 -2 -20 -14 -28c-26 -16 -57 -46 -57 -81c0 -17 6 -22 22 -22c38 0 61 -28 61 -68z" />
    <glyph glyph-name="a" unicode="a" horiz-adv-x="685" 
d="M668 0h-104l-66 121h-316l-64 -121h-100l280 518h88zM454 208l-113 211l-113 -211h226z" />
    <glyph glyph-name="b" unicode="b" horiz-adv-x="741" 
d="M678 161c0 -45 -17 -89 -50 -120c-41 -39 -93 -41 -147 -41h-328v518h328c95 0 171 -35 171 -141c0 -40 -7 -58 -30 -91c39 -36 56 -72 56 -125zM564 374c0 16 -7 31 -18 41c-12 11 -20 15 -65 15h-238v-111h238c40 0 83 5 83 55zM589 160c0 21 -8 41 -24 55
c-15 13 -25 16 -80 16h-242v-143h238c56 0 71 5 87 21c13 13 21 32 21 51z" />
    <glyph glyph-name="c" unicode="c" horiz-adv-x="741" 
d="M680 63c-81 -56 -163 -81 -262 -81c-166 0 -323 92 -323 274c0 174 146 277 310 277c101 0 190 -35 269 -97l-47 -74c-72 50 -131 82 -221 82c-112 0 -223 -65 -223 -188c0 -129 119 -185 233 -185c85 0 155 25 225 73z" />
    <glyph glyph-name="d" unicode="d" horiz-adv-x="759" 
d="M697 261c0 -160 -105 -261 -264 -261h-284v518h284c172 0 264 -115 264 -257zM609 260c0 113 -70 170 -176 170h-196v-342h196c105 0 176 65 176 172z" />
    <glyph glyph-name="e" unicode="e" horiz-adv-x="685" 
d="M622 0h-466v518h456v-88h-368v-119h202v-88h-202v-135h378v-88z" />
    <glyph glyph-name="f" unicode="f" horiz-adv-x="667" 
d="M606 430h-363v-119h214v-88h-214v-223h-88v518h451v-88z" />
    <glyph glyph-name="g" unicode="g" horiz-adv-x="722" 
d="M663 77c-83 -60 -158 -92 -263 -92c-161 0 -310 102 -310 274c0 177 154 273 317 273c94 0 168 -28 242 -85l-51 -71c-71 50 -111 68 -198 68c-110 0 -221 -64 -221 -185c0 -122 112 -186 222 -186c76 0 108 11 173 50v78h-149v89h238v-213z" />
    <glyph glyph-name="h" unicode="h" horiz-adv-x="796" 
d="M647 0h-88v222h-318v-222h-88v518h88v-208h318v208h88v-518z" />
    <glyph glyph-name="i" unicode="i" horiz-adv-x="389" 
d="M240 0h-88v518h88v-518z" />
    <glyph glyph-name="j" unicode="j" horiz-adv-x="648" 
d="M497 233c0 -108 -16 -133 -42 -165c-47 -58 -129 -83 -201 -83c-107 0 -183 43 -231 140l73 49c35 -73 83 -100 163 -100c46 0 108 16 133 58c14 23 17 42 17 101v285h88v-285z" />
    <glyph glyph-name="k" unicode="k" horiz-adv-x="667" 
d="M643 0h-108l-196 270l-97 -86v-184h-88v518h88v-230l253 230h113l-200 -190z" />
    <glyph glyph-name="l" unicode="l" horiz-adv-x="574" 
d="M555 0h-404v518h88v-430h316v-88z" />
    <glyph glyph-name="m" unicode="m" horiz-adv-x="870" 
d="M720 0h-88v364l-196 -291l-197 291v-364h-88v518h88l197 -298l197 298h87v-518z" />
    <glyph glyph-name="n" unicode="n" horiz-adv-x="796" 
d="M651 0h-88l-324 385v-385h-88v518h89l323 -384v384h88v-518z" />
    <glyph glyph-name="o" unicode="o" horiz-adv-x="833" 
d="M735 260c0 -178 -159 -278 -323 -278c-161 0 -312 100 -312 273v14c0 175 162 264 320 264c163 0 315 -97 315 -273zM646 259c0 127 -114 184 -227 184s-230 -60 -230 -187c0 -125 112 -184 224 -184s233 60 233 187z" />
    <glyph glyph-name="p" unicode="p" horiz-adv-x="704" 
d="M646 351c0 -47 -16 -92 -52 -124c-42 -37 -66 -39 -159 -39h-201v-188h-88v518h317c65 0 79 -5 109 -23c49 -29 74 -89 74 -144zM558 351c0 64 -35 79 -113 79h-211v-154h201c93 0 123 12 123 75z" />
    <glyph glyph-name="q" unicode="q" horiz-adv-x="833" 
d="M736 259c0 -59 -19 -116 -55 -163c-19 -25 -44 -45 -69 -64l60 -64l-86 -37l-64 64c-35 -7 -70 -14 -106 -14c-162 0 -316 99 -316 274c0 179 160 277 324 277c165 0 312 -96 312 -273zM648 260c0 127 -115 184 -228 184c-111 0 -232 -63 -232 -188
c0 -122 114 -188 225 -188c12 0 24 2 36 4l-25 30l87 37l37 -39c62 39 100 84 100 160z" />
    <glyph glyph-name="r" unicode="r" horiz-adv-x="722" 
d="M674 0h-109l-150 212h-181v-212h-89v518h320c105 0 197 -33 197 -153c0 -88 -54 -140 -139 -151zM574 369c0 44 -21 61 -105 61h-235v-130h240c49 0 100 10 100 69z" />
    <glyph glyph-name="s" unicode="s" horiz-adv-x="685" 
d="M617 162c0 -147 -124 -180 -248 -180c-112 0 -220 20 -311 88l42 77c85 -54 153 -77 255 -77c99 0 169 14 169 83c0 13 -2 27 -9 39c-17 26 -66 33 -144 33c-155 0 -175 7 -205 21c-47 22 -72 72 -72 123c0 126 127 164 232 164c96 0 179 -22 263 -68l-41 -79
c-74 44 -134 60 -220 60c-84 0 -138 -20 -138 -71c0 -12 2 -25 9 -35c14 -21 48 -29 149 -29c141 0 269 -12 269 -149z" />
    <glyph glyph-name="t" unicode="t" horiz-adv-x="611" 
d="M550 430h-200v-430h-89v430h-196v88h485v-88z" />
    <glyph glyph-name="u" unicode="u" horiz-adv-x="796" 
d="M652 226c0 -82 -6 -108 -32 -148c-45 -69 -142 -93 -219 -93c-71 0 -145 16 -198 66c-51 49 -54 108 -54 175v292h89v-292c0 -71 7 -88 23 -106c33 -37 100 -46 146 -46c48 0 111 12 140 54c12 17 17 34 17 98v292h88v-292z" />
    <glyph glyph-name="v" unicode="v" horiz-adv-x="667" 
d="M652 518l-274 -518h-86l-270 518h100l214 -412l216 412h100z" />
    <glyph glyph-name="w" unicode="w" horiz-adv-x="833" 
d="M817 518l-189 -518h-89l-122 373l-129 -373h-86l-184 518h94l132 -375l130 375h89l122 -375l138 375h94z" />
    <glyph glyph-name="x" unicode="x" horiz-adv-x="648" 
d="M633 0h-121l-187 210l-190 -210h-120l249 276l-215 242h117l159 -176l165 176h114l-220 -242z" />
    <glyph glyph-name="y" unicode="y" horiz-adv-x="574" 
d="M558 518l-227 -285v-233h-88v233l-227 285h112l159 -201l159 201h112z" />
    <glyph glyph-name="z" unicode="z" horiz-adv-x="537" 
d="M524 0h-463l-42 69l367 361h-336v88h426l48 -69l-370 -360h370v-89z" />
    <glyph glyph-name="braceleft" unicode="{" horiz-adv-x="426" 
d="M325 -16c-121 0 -161 36 -161 129v156c0 61 -12 85 -83 85v45c64 0 83 16 83 85v148c0 93 40 129 161 129v-52c-62 0 -80 -16 -80 -75v-136c0 -69 -26 -109 -80 -122c54 -15 80 -52 80 -121v-144c0 -56 18 -75 80 -75v-52z" />
    <glyph glyph-name="bar" unicode="|" horiz-adv-x="351" 
d="M211 -250h-71v1000h71v-1000z" />
    <glyph glyph-name="braceright" unicode="}" horiz-adv-x="426" 
d="M355 346c-64 0 -83 -16 -83 -85v-148c0 -93 -40 -129 -161 -129v52c62 0 80 16 80 75v136c0 69 26 109 80 122c-54 15 -80 52 -80 121v144c0 56 -18 75 -80 75v52c121 0 161 -36 161 -129v-156c0 -61 12 -85 83 -85v-45z" />
    <glyph glyph-name="asciitilde" unicode="~" 
d="M691 237c-26 -35 -80 -75 -124 -75c-96 0 -169 62 -235 62c-36 0 -65 -39 -85 -58l-47 57c32 36 80 72 128 72c86 0 149 -58 234 -58c34 0 64 30 83 51z" />
    <glyph glyph-name="exclamdown" unicode="&#xa1;" horiz-adv-x="352" 
d="M240 702c0 -35 -28 -64 -63 -64s-64 29 -64 64s28 63 63 63s64 -27 64 -63zM230 0h-108l23 569h64z" />
    <glyph glyph-name="cent" unicode="&#xa2;" 
d="M737 63c-72 -50 -148 -77 -236 -80v-89h-77v91c-149 18 -272 111 -272 271c0 157 122 261 272 275v93h77v-93c93 -9 157 -38 230 -95l-48 -74c-58 43 -109 71 -182 80v-370c76 6 135 29 197 72zM424 75v367c-100 -16 -184 -78 -184 -186c0 -109 85 -166 184 -181z" />
    <glyph glyph-name="sterling" unicode="&#xa3;" 
d="M754 469h-93c-1 89 -79 118 -156 118c-100 0 -166 -49 -166 -153v-61h189v-73h-189v-211h388v-89h-568v89h93v211h-93v73h93v75c0 158 116 220 260 220c125 0 242 -61 242 -199z" />
    <glyph glyph-name="fraction" unicode="&#x2044;" horiz-adv-x="313" 
d="M479 718l-552 -758h-84l551 758h85z" />
    <glyph glyph-name="yen" unicode="&#xa5;" 
d="M777 655l-213 -255h136v-63h-188l-27 -32v-42h215v-63h-214v-200h-87v200h-215v63h215v42l-27 32h-188v63h137l-209 255h106l225 -277l226 277h108z" />
    <glyph glyph-name="florin" unicode="&#x192;" horiz-adv-x="704" 
d="M591 662l-14 -76c-21 2 -41 4 -62 4c-72 0 -110 -26 -119 -99l-4 -31h159l-12 -72h-159l-37 -274c-7 -51 -18 -126 -38 -174c-30 -73 -102 -89 -174 -89c-24 0 -48 2 -72 3l17 81c19 0 38 -2 57 -2c48 0 76 7 94 54c16 42 24 91 30 135l37 266h-155l13 72h151l12 68
c18 100 86 140 183 140c31 0 62 -2 93 -6z" />
    <glyph glyph-name="section" unicode="&#xa7;" horiz-adv-x="593" 
d="M534 348c0 -46 -35 -79 -61 -97c25 -22 53 -57 53 -111c0 -104 -93 -164 -234 -164c-69 0 -160 22 -217 80l31 72c61 -54 122 -79 187 -79c80 0 148 23 148 91c0 42 -40 62 -80 77l-153 59c-68 26 -121 69 -121 150c0 41 32 79 58 99c-24 23 -39 58 -39 96
c0 108 113 148 199 148c69 0 155 -26 207 -78l-30 -71c-41 44 -117 74 -175 74c-53 0 -115 -15 -115 -71c0 -38 36 -61 70 -74l153 -59c63 -24 119 -72 119 -142zM447 343c0 38 -26 58 -65 74l-173 71c-20 -11 -37 -32 -37 -59c0 -43 40 -66 81 -82l157 -61
c21 12 37 35 37 57z" />
    <glyph glyph-name="currency" unicode="&#xa4;" horiz-adv-x="753" 
d="M610 174c-15 -15 -29 -30 -44 -45c-22 23 -44 45 -67 67c-32 -24 -74 -38 -117 -38c-33 0 -78 9 -116 38c-23 -22 -45 -44 -68 -67c-14 15 -28 30 -43 45c22 21 45 44 68 65c-24 34 -38 74 -38 115s13 83 38 115c-23 22 -46 44 -68 66c15 15 29 30 43 45
c23 -23 45 -45 68 -67c40 28 83 38 116 38c37 0 83 -12 116 -38c23 22 46 44 68 67c15 -15 29 -30 44 -45c-22 -22 -45 -44 -68 -66c27 -37 38 -78 38 -115c0 -40 -13 -80 -38 -115c23 -21 46 -44 68 -65zM518 355c0 80 -67 134 -135 134c-78 0 -136 -62 -136 -134
c0 -73 61 -136 135 -136c75 0 136 62 136 136z" />
    <glyph glyph-name="quotesingle" unicode="'" horiz-adv-x="333" 
d="M221 757l-22 -253h-55l-22 253h99z" />
    <glyph glyph-name="quotedblleft" unicode="&#x201c;" horiz-adv-x="667" 
d="M525 540c0 -33 -32 -60 -63 -60c-58 0 -90 58 -90 109c0 82 55 132 90 160c5 5 23 15 29 15c13 0 22 -7 22 -25c0 -14 -2 -20 -14 -28c-26 -16 -57 -46 -57 -81c0 -17 6 -22 22 -22c38 0 61 -28 61 -68zM292 540c0 -33 -32 -60 -63 -60c-58 0 -90 58 -90 109
c0 82 55 132 90 160c5 5 23 15 29 15c13 0 22 -7 22 -25c0 -14 -2 -20 -14 -28c-26 -16 -57 -46 -57 -81c0 -17 6 -22 22 -22c38 0 61 -28 61 -68z" />
    <glyph glyph-name="guillemotleft" unicode="&#xab;" horiz-adv-x="556" 
d="M500 67h-81l-134 196l134 193h81l-115 -193zM268 67h-80l-134 196l134 193h80l-115 -193z" />
    <glyph glyph-name="guilsinglleft" unicode="&#x2039;" horiz-adv-x="333" 
d="M278 67h-81l-134 196l134 193h81l-116 -193z" />
    <glyph glyph-name="guilsinglright" unicode="&#x203a;" horiz-adv-x="333" 
d="M270 263l-134 -196h-81l116 196l-116 193h81z" />
    <glyph glyph-name="endash" unicode="&#x2013;" horiz-adv-x="370" 
d="M380 219h-389v76h389v-76z" />
    <glyph glyph-name="dagger" unicode="&#x2020;" horiz-adv-x="593" 
d="M522 457h-185v-457h-81v457h-185v81h185v207h81v-207h185v-81z" />
    <glyph glyph-name="daggerdbl" unicode="&#x2021;" horiz-adv-x="593" 
d="M522 172h-185v-173h-81v173h-185v81h185v243h-185v81h185v168h81v-168h185v-81h-185v-243h185v-81z" />
    <glyph glyph-name="periodcentered" unicode="&#xb7;" horiz-adv-x="370" 
d="M254 325c0 -38 -31 -68 -68 -68c-38 0 -70 30 -70 68c0 37 31 69 68 69c39 0 70 -31 70 -69z" />
    <glyph glyph-name="paragraph" unicode="&#xb6;" horiz-adv-x="815" 
d="M705 0h-78v672h-76v-672h-81v314h-123c-59 0 -120 1 -172 36c-60 40 -87 110 -87 178c0 63 23 128 73 171c47 41 94 47 153 47h391v-746zM470 672h-156c-93 0 -142 -42 -142 -142c0 -44 16 -92 54 -115c28 -16 59 -24 121 -24h122z" />
    <glyph glyph-name="bullet" unicode="&#x2022;" horiz-adv-x="500" 
d="M369 372c0 -65 -53 -118 -119 -118s-119 53 -119 118c0 66 54 120 119 120s119 -54 119 -120z" />
    <glyph glyph-name="quotesinglbase" unicode="&#x201a;" horiz-adv-x="389" 
d="M295 0c0 -82 -55 -132 -90 -160c-5 -5 -23 -15 -29 -15c-13 0 -22 7 -22 25c0 14 2 21 14 28c26 16 57 46 57 81c0 17 -6 22 -21 22c-39 0 -62 28 -62 68c0 33 32 60 64 60c57 0 89 -58 89 -109z" />
    <glyph glyph-name="quotedblbase" unicode="&#x201e;" horiz-adv-x="667" 
d="M548 0c0 -82 -55 -132 -90 -160c-5 -5 -23 -15 -29 -15c-13 0 -22 7 -22 25c0 14 2 21 14 28c26 16 57 46 57 81c0 17 -6 22 -21 22c-39 0 -62 28 -62 68c0 33 32 60 64 60c57 0 89 -58 89 -109zM315 0c0 -82 -55 -132 -90 -160c-5 -5 -23 -15 -29 -15
c-13 0 -22 7 -22 25c0 14 2 21 14 28c26 16 57 46 57 81c0 17 -6 22 -21 22c-39 0 -62 28 -62 68c0 33 32 60 64 60c57 0 89 -58 89 -109z" />
    <glyph glyph-name="quotedblright" unicode="&#x201d;" horiz-adv-x="667" 
d="M555 655c0 -82 -55 -132 -90 -160c-5 -5 -23 -15 -29 -15c-13 0 -22 7 -22 25c0 14 2 21 14 28c26 16 57 46 57 81c0 17 -6 22 -21 22c-39 0 -62 28 -62 68c0 33 32 60 64 60c57 0 89 -58 89 -109zM322 655c0 -82 -55 -132 -90 -160c-5 -5 -23 -15 -29 -15
c-13 0 -22 7 -22 25c0 14 2 21 14 28c26 16 57 46 57 81c0 17 -6 22 -21 22c-39 0 -62 28 -62 68c0 33 32 60 64 60c57 0 89 -58 89 -109z" />
    <glyph glyph-name="guillemotright" unicode="&#xbb;" horiz-adv-x="556" 
d="M502 263l-134 -196h-81l116 196l-116 193h81zM270 263l-134 -196h-81l116 196l-116 193h81z" />
    <glyph glyph-name="ellipsis" unicode="&#x2026;" horiz-adv-x="1110" 
d="M994 45c0 -38 -31 -68 -68 -68c-38 0 -70 30 -70 68c0 37 31 69 68 69c39 0 70 -31 70 -69zM624 45c0 -38 -31 -68 -68 -68c-38 0 -70 30 -70 68c0 37 31 69 68 69c39 0 69 -31 69 -69h1zM254 45c0 -38 -31 -68 -68 -68c-38 0 -70 30 -70 68c0 37 31 69 68 69
c39 0 69 -31 69 -69h1z" />
    <glyph glyph-name="perthousand" unicode="&#x2030;" horiz-adv-x="1744" 
d="M1680 191c0 -131 -118 -207 -240 -207c-117 0 -236 80 -236 205c0 133 112 211 238 211c122 0 238 -80 238 -209zM1140 191c0 -131 -118 -207 -240 -207c-117 0 -236 80 -236 205c0 133 112 211 238 211c122 0 237 -80 237 -209h1zM934 718l-551 -758h-85l550 758h86z
M539 460c0 -133 -117 -208 -240 -208c-118 0 -236 80 -236 206c0 132 112 211 238 211c121 0 238 -81 238 -209zM1603 192c0 85 -79 138 -162 138c-87 0 -160 -52 -160 -140c0 -85 81 -135 163 -135c84 0 159 51 159 137zM1063 192c0 85 -79 138 -162 138
c-87 0 -160 -52 -160 -140c0 -85 81 -135 163 -135c84 0 158 51 158 137h1zM463 460c0 85 -79 137 -163 137c-86 0 -160 -51 -160 -138c0 -86 81 -136 164 -136s158 52 158 137h1z" />
    <glyph glyph-name="questiondown" unicode="&#xbf;" horiz-adv-x="593" 
d="M413 701c0 -35 -28 -64 -63 -64c-36 0 -64 28 -64 64c0 35 28 63 63 63s64 -28 64 -63zM515 2c-59 -16 -123 -20 -184 -20c-129 0 -257 34 -257 187c0 82 47 138 109 185l101 76c19 15 24 34 24 57v74h83v-74c0 -53 -6 -81 -41 -108l-106 -82c-39 -30 -77 -73 -77 -125
c0 -91 112 -107 181 -107c61 0 108 7 167 24v-87z" />
    <glyph glyph-name="grave" unicode="`" horiz-adv-x="370" 
d="M285 575h-88l-112 130h120z" />
    <glyph glyph-name="acute" unicode="&#xb4;" horiz-adv-x="370" 
d="M258 705l-106 -130h-89l78 130h117z" />
    <glyph glyph-name="circumflex" unicode="&#x2c6;" horiz-adv-x="370" 
d="M335 575h-90l-63 79l-63 -79h-84l93 130h112z" />
    <glyph glyph-name="tilde" unicode="&#x2dc;" horiz-adv-x="370" 
d="M352 684c-2 -61 -18 -105 -86 -105c-58 0 -121 31 -153 31c-23 0 -29 -16 -31 -36h-64c0 59 19 110 86 110c55 0 115 -34 148 -34c24 0 33 11 36 34h64z" />
    <glyph glyph-name="macron" unicode="&#xaf;" horiz-adv-x="370" 
d="M320 610h-270v61h270v-61z" />
    <glyph glyph-name="breve" unicode="&#x2d8;" horiz-adv-x="370" 
d="M336 711c-4 -89 -65 -136 -151 -136s-148 47 -151 136h78c3 -47 30 -64 75 -64c42 0 68 21 71 64h78z" />
    <glyph glyph-name="dotaccent" unicode="&#x2d9;" horiz-adv-x="370" 
d="M231 590h-92v101h92v-101z" />
    <glyph glyph-name="dieresis" unicode="&#xa8;" horiz-adv-x="370" 
d="M322 590h-93v101h93v-101zM140 590h-92v101h92v-101z" />
    <glyph glyph-name="ring" unicode="&#x2da;" horiz-adv-x="370" 
d="M299 685c0 -62 -52 -111 -113 -111c-63 0 -115 51 -115 114s52 114 115 114c64 0 113 -54 113 -117zM243 685c0 32 -25 60 -58 60c-31 0 -57 -26 -57 -57s24 -57 56 -57c31 0 59 22 59 54z" />
    <glyph glyph-name="cedilla" unicode="&#xb8;" horiz-adv-x="370" 
d="M312 -145c0 -71 -82 -90 -138 -90c-48 0 -73 9 -116 29l24 50c33 -17 49 -21 86 -21c21 0 50 7 50 33c0 22 -24 31 -42 31c-15 0 -30 -4 -45 -8l-22 27l76 104h73l-57 -79c54 0 111 -9 111 -76z" />
    <glyph glyph-name="hungarumlaut" unicode="&#x2dd;" horiz-adv-x="370" 
d="M361 705l-107 -130h-89l79 130h117zM204 705l-106 -130h-89l78 130h117z" />
    <glyph glyph-name="ogonek" unicode="&#x2db;" horiz-adv-x="370" 
d="M288 -169c-28 -25 -71 -41 -116 -41c-50 0 -90 31 -90 82c0 76 59 126 122 157l31 -10c-31 -32 -66 -81 -66 -125c0 -33 20 -47 46 -47c19 0 50 11 61 20z" />
    <glyph glyph-name="caron" unicode="&#x2c7;" horiz-adv-x="370" 
d="M335 705l-95 -130h-112l-93 130h84l63 -78l63 78h90z" />
    <glyph glyph-name="emdash" unicode="&#x2014;" horiz-adv-x="1000" 
d="M1005 219h-1010v76h1010v-76z" />
    <glyph glyph-name="AE" unicode="&#xc6;" horiz-adv-x="1296" 
d="M1233 0h-638v257h-288l-192 -257h-98l560 747h635v-88h-528v-228h278v-88h-278v-255h549v-88zM595 344v298l-222 -298h222z" />
    <glyph glyph-name="ordfeminine" unicode="&#xaa;" horiz-adv-x="500" 
d="M421 308h-74v43c-28 -34 -53 -59 -130 -59c-78 0 -153 36 -153 123c0 99 84 113 207 113h76c0 16 -2 31 -5 41c-9 31 -63 39 -93 39c-37 0 -82 -9 -96 -49l-67 2c13 95 102 107 177 107c114 0 158 -49 158 -161v-199zM350 471h-71c-105 0 -148 -10 -148 -58
c0 -45 56 -60 93 -60c70 0 126 35 126 118z" />
    <glyph glyph-name="Lslash" unicode="&#x141;" horiz-adv-x="722" 
d="M708 0h-559v256l-67 -45l-45 59l112 80v397h88v-335l157 108l44 -59l-201 -143v-230h471v-88z" />
    <glyph glyph-name="Oslash" unicode="&#xd8;" horiz-adv-x="1000" 
d="M901 374c0 -226 -182 -393 -404 -393c-84 0 -170 24 -239 72l-107 -118l-56 51l106 117c-65 69 -107 175 -107 270c0 222 189 391 406 391c89 0 159 -20 233 -70l93 103l56 -50l-91 -101c72 -74 110 -169 110 -272zM812 373c0 77 -27 150 -81 206l-413 -458
c55 -36 115 -52 180 -52c172 0 314 129 314 304zM673 627c-65 40 -97 48 -172 48c-170 0 -318 -127 -318 -302c0 -75 27 -147 78 -203z" />
    <glyph glyph-name="OE" unicode="&#x152;" horiz-adv-x="1315" 
d="M1252 0h-612c-33 0 -95 -19 -146 -19c-231 0 -400 155 -400 389c0 239 171 394 407 394c78 0 103 -17 123 -17h606v-88h-527v-228h277v-88h-277v-255h549v-88zM614 90v565c-41 17 -63 20 -107 20c-184 0 -324 -112 -324 -303s132 -304 318 -304c47 0 69 4 113 22z" />
    <glyph glyph-name="ordmasculine" unicode="&#xba;" horiz-adv-x="500" 
d="M460 480c0 -122 -105 -183 -211 -183c-109 0 -209 66 -209 188c0 117 104 183 207 183c107 0 213 -67 213 -188zM391 481c0 79 -70 124 -143 124c-70 0 -139 -45 -139 -121c0 -78 71 -122 142 -122s140 41 140 119z" />
    <glyph glyph-name="ae" unicode="&#xe6;" horiz-adv-x="1019" 
d="M956 0h-467v121h-265l-106 -121h-100l454 518h473v-88h-367v-119h201v-88h-201v-135h378v-88zM489 208v215l-188 -215h188z" />
    <glyph glyph-name="dotlessi" unicode="&#x131;" horiz-adv-x="389" 
d="M240 0h-88v518h88v-518z" />
    <glyph glyph-name="lslash" unicode="&#x142;" horiz-adv-x="574" 
d="M555 0h-404v197l-48 -32l-38 50l86 60v243h88v-181l75 53l37 -49l-112 -82v-171h316v-88z" />
    <glyph glyph-name="oslash" unicode="&#xf8;" horiz-adv-x="833" 
d="M735 259c0 -176 -158 -277 -321 -277c-71 0 -102 6 -166 38l-78 -87l-55 49l71 79c-55 50 -86 121 -86 196c0 177 155 276 319 276c69 0 99 -5 161 -34l74 81l55 -49l-65 -72c58 -50 91 -123 91 -200zM646 258c0 53 -23 99 -62 135l-273 -304c40 -14 60 -17 102 -17
c111 0 233 60 233 186zM517 428c-38 13 -58 15 -98 15c-114 0 -230 -59 -230 -187c0 -52 19 -93 57 -128z" />
    <glyph glyph-name="oe" unicode="&#x153;" horiz-adv-x="1037" 
d="M974 0h-418c-18 0 -92 -18 -141 -18c-182 0 -315 85 -315 274c0 190 141 277 318 277c43 0 107 -15 127 -15h419v-88h-368v-119h202v-88h-202v-135h378v-88zM508 87v343c-23 8 -48 13 -82 13c-133 0 -237 -50 -237 -187c0 -135 101 -184 230 -184c37 0 64 4 89 15z" />
    <glyph glyph-name="germandbls" unicode="&#xdf;" horiz-adv-x="1375" 
d="M1307 162c0 -147 -124 -180 -248 -180c-112 0 -220 20 -311 88l42 77c85 -54 153 -77 255 -77c99 0 169 14 169 83c0 13 -2 27 -9 39c-17 26 -66 33 -144 33c-155 0 -175 7 -205 21c-47 22 -72 72 -72 123c0 126 127 164 232 164c96 0 179 -22 263 -68l-41 -79
c-74 44 -134 60 -220 60c-84 0 -138 -20 -138 -71c0 -12 2 -25 9 -35c14 -21 48 -29 149 -29c141 0 269 -12 269 -149zM617 162c0 -147 -124 -180 -248 -180c-112 0 -220 20 -311 88l42 77c85 -54 153 -77 255 -77c99 0 169 14 169 83c0 13 -2 27 -9 39
c-17 26 -66 33 -144 33c-155 0 -175 7 -205 21c-47 22 -72 72 -72 123c0 126 127 164 232 164c96 0 179 -22 263 -68l-41 -79c-74 44 -134 60 -220 60c-84 0 -138 -20 -138 -71c0 -12 2 -25 9 -35c14 -21 48 -29 149 -29c141 0 269 -12 269 -149z" />
    <glyph glyph-name="logicalnot" unicode="&#xac;" 
d="M682 117h-72v160h-403v73h475v-233z" />
    <glyph glyph-name="mu" unicode="&#xb5;" horiz-adv-x="796" 
d="M652 0h-88v53c-24 -28 -65 -68 -161 -68c-91 0 -142 35 -166 63v-200h-88v670h88v-292c0 -73 6 -87 23 -106c33 -36 100 -46 146 -46c48 0 111 13 141 54c11 15 17 34 17 98v292h88v-518z" />
    <glyph glyph-name="trademark" unicode="&#x2122;" horiz-adv-x="722" 
d="M669 457h-58v172l-103 -151l-103 151v-172h-58v289h56l105 -162l106 162h55v-289zM305 690h-97v-233h-64v233h-99v56h260v-56z" />
    <glyph glyph-name="Eth" unicode="&#xd0;" horiz-adv-x="926" 
d="M864 371c0 -185 -141 -371 -336 -371h-378v343h-110v88h110v316h368c273 0 346 -267 346 -376zM776 374c0 159 -109 285 -258 285h-280v-228h251v-88h-251v-255h290c147 0 248 150 248 286z" />
    <glyph glyph-name="onehalf" unicode="&#xbd;" horiz-adv-x="1204" 
d="M1074 -1h-406v23c0 112 60 202 183 213c29 3 58 5 87 8c23 2 62 10 62 38c0 49 -83 54 -119 54c-66 0 -106 -12 -171 -43l-33 58c81 40 119 52 204 52c71 0 191 -24 191 -120c0 -70 -70 -101 -128 -106c-37 -4 -101 -5 -135 -19c-22 -10 -50 -31 -63 -93h328v-65z
M815 718l-552 -758h-85l551 758h86zM232 265h-74v393h74v-393z" />
    <glyph glyph-name="plusminus" unicode="&#xb1;" 
d="M682 230h-201v-167h-72v166h-202v72h201v167h72v-166h202v-72zM682 -73h-475v73h475v-73z" />
    <glyph glyph-name="Thorn" unicode="&#xde;" horiz-adv-x="852" 
d="M795 386c0 -63 -25 -131 -75 -171c-46 -37 -104 -45 -161 -45h-326v-170h-88v747h88v-148h326c140 0 236 -65 236 -213zM707 387c0 42 -16 85 -53 108c-19 12 -51 16 -95 16h-326v-252h326c89 0 148 32 148 128z" />
    <glyph glyph-name="onequarter" unicode="&#xbc;" horiz-adv-x="1204" 
d="M1113 95h-94v-95h-73v95h-288l-32 60l322 236h70v-231h95v-65zM848 718l-552 -758h-85l551 758h86zM242 265h-74v393h74v-393zM946 160v150l-212 -150h212z" />
    <glyph glyph-name="divide" unicode="&#xf7;" 
d="M503 404c0 -32 -26 -58 -58 -58c-33 0 -59 26 -59 58s26 58 58 58c33 0 59 -26 59 -58zM682 194h-475v73h475v-73zM503 62c0 -32 -26 -58 -58 -58c-33 0 -59 26 -59 58s26 58 58 58c33 0 59 -26 59 -58z" />
    <glyph glyph-name="brokenbar" unicode="&#xa6;" horiz-adv-x="351" 
d="M211 325h-71v350h71v-350zM211 -175h-71v350h71v-350z" />
    <glyph glyph-name="degree" unicode="&#xb0;" horiz-adv-x="426" 
d="M337 641c0 -69 -56 -124 -124 -124s-124 55 -124 123c0 69 56 124 124 124s124 -55 124 -123zM282 640c0 38 -31 69 -69 69s-69 -31 -69 -68c0 -38 31 -69 69 -69s68 31 68 69z" />
    <glyph glyph-name="thorn" unicode="&#xfe;" horiz-adv-x="704" 
d="M646 263c0 -48 -16 -92 -52 -125c-31 -29 -50 -39 -159 -39h-201v-99h-88v518h88v-88h201c83 0 98 -1 137 -24c49 -29 74 -88 74 -143zM558 263c0 71 -50 78 -103 78h-221v-153h216c62 0 108 8 108 75z" />
    <glyph glyph-name="threequarters" unicode="&#xbe;" horiz-adv-x="1204" 
d="M1142 95h-94v-95h-73v95h-288l-32 60l322 236h70v-231h95v-65zM962 718l-552 -758h-85l551 758h86zM523 382c0 -107 -165 -124 -236 -124c-82 0 -149 15 -225 63l40 54c69 -40 114 -50 188 -50c37 0 160 2 160 57c0 50 -107 57 -142 57h-49v66h49c30 0 116 6 116 49
c0 45 -99 48 -130 48c-55 0 -91 -13 -148 -37l-33 57c68 33 114 46 183 46c63 0 200 -19 200 -111c0 -35 -21 -60 -45 -80c36 -19 72 -49 72 -95zM975 160v150l-212 -150h212z" />
    <glyph glyph-name="registered" unicode="&#xae;" horiz-adv-x="945" 
d="M862 372c0 -215 -174 -389 -389 -389c-216 0 -390 174 -390 389s174 389 390 389c215 0 389 -174 389 -389zM798 372c0 180 -145 325 -325 325s-325 -146 -325 -325s146 -325 325 -325s325 145 325 325zM672 464c0 -37 -15 -74 -43 -99c-15 -13 -29 -19 -46 -23l88 -164
h-76l-86 161h-129v-161h-66v412h196c61 0 80 -2 112 -23c32 -22 50 -64 50 -103zM606 463c0 41 -29 58 -70 58h-156v-113h148c34 0 46 2 57 10c13 10 21 28 21 45z" />
    <glyph glyph-name="minus" unicode="&#x2212;" 
d="M682 198l-475 -1v73h475v-72z" />
    <glyph glyph-name="eth" unicode="&#xf0;" horiz-adv-x="759" 
d="M697 261c0 -160 -105 -261 -264 -261h-284v227h-84v80h84v211h284c172 0 264 -115 264 -257zM609 260c0 113 -70 170 -176 170h-196v-123h175v-80h-175v-139h196c105 0 176 65 176 172z" />
    <glyph glyph-name="multiply" unicode="&#xd7;" 
d="M652 75l-51 -51l-157 157l-156 -157l-51 51l157 156l-157 157l51 51l156 -157l157 157l51 -51l-157 -157z" />
    <glyph glyph-name="copyright" unicode="&#xa9;" horiz-adv-x="945" 
d="M862 372c0 -215 -174 -389 -389 -389c-216 0 -390 174 -390 389s174 389 390 389c215 0 389 -174 389 -389zM798 372c0 180 -145 325 -325 325s-325 -146 -325 -325s146 -325 325 -325s325 145 325 325zM687 254c-64 -63 -119 -87 -200 -87c-122 0 -223 83 -223 212
c0 124 95 212 217 212c74 0 141 -27 201 -88l-49 -47c-50 44 -96 67 -154 67c-81 0 -147 -63 -147 -143c0 -88 71 -144 158 -144c58 0 101 19 150 70z" />
    <glyph glyph-name="Aacute" unicode="&#xc1;" horiz-adv-x="833" 
d="M538 936l-106 -130h-89l78 130h117zM813 0h-98l-122 257h-360l-118 -257h-98l356 747h90zM554 344l-137 296l-140 -296h277z" />
    <glyph glyph-name="Acircumflex" unicode="&#xc2;" horiz-adv-x="833" 
d="M565 806h-90l-63 79l-63 -79h-84l93 130h112zM813 0h-98l-122 257h-360l-118 -257h-98l356 747h90zM554 344l-137 296l-140 -296h277z" />
    <glyph glyph-name="Adieresis" unicode="&#xc4;" horiz-adv-x="833" 
d="M554 821h-93v101h93v-101zM372 821h-92v101h92v-101zM813 0h-98l-122 257h-360l-118 -257h-98l356 747h90zM554 344l-137 296l-140 -296h277z" />
    <glyph glyph-name="Agrave" unicode="&#xc0;" horiz-adv-x="833" 
d="M495 806h-88l-112 130h120zM813 0h-98l-122 257h-360l-118 -257h-98l356 747h90zM554 344l-137 296l-140 -296h277z" />
    <glyph glyph-name="Aring" unicode="&#xc5;" horiz-adv-x="833" 
d="M529 916c0 -62 -52 -111 -113 -111c-63 0 -115 51 -115 114s52 114 115 114c64 0 113 -54 113 -117zM813 0h-98l-122 257h-360l-118 -257h-98l356 747h90zM473 916c0 32 -25 60 -58 60c-31 0 -57 -26 -57 -57s24 -57 56 -57c31 0 59 22 59 54zM554 344l-137 296
l-140 -296h277z" />
    <glyph glyph-name="Atilde" unicode="&#xc3;" horiz-adv-x="833" 
d="M572 915c-2 -61 -18 -105 -86 -105c-58 0 -121 31 -153 31c-23 0 -29 -16 -31 -36h-64c0 59 19 110 86 110c55 0 115 -34 148 -34c24 0 33 11 36 34h64zM813 0h-98l-122 257h-360l-118 -257h-98l356 747h90zM554 344l-137 296l-140 -296h277z" />
    <glyph glyph-name="Ccedilla" unicode="&#xc7;" horiz-adv-x="944" 
d="M876 130c-123 -118 -195 -136 -363 -149l-33 -47c52 0 112 -9 112 -74c0 -72 -80 -92 -138 -92c-47 0 -73 9 -116 29l24 49c31 -17 50 -20 85 -20c20 0 51 6 51 32c0 22 -24 32 -42 32c-16 0 -31 -4 -46 -8l-21 26l56 78c-202 31 -345 179 -345 387
c0 231 177 393 404 393c138 0 264 -51 361 -149l-63 -61c-13 11 -25 22 -38 32c-73 57 -174 91 -267 91c-168 0 -309 -134 -309 -304c0 -190 154 -306 335 -306c124 0 208 39 293 128z" />
    <glyph glyph-name="Eacute" unicode="&#xc9;" horiz-adv-x="852" 
d="M598 936l-106 -130h-89l78 130h117zM789 0h-638v747h616v-88h-527v-228h277v-88h-277v-255h549v-88z" />
    <glyph glyph-name="Ecircumflex" unicode="&#xca;" horiz-adv-x="852" 
d="M615 806h-90l-63 79l-63 -79h-84l93 130h112zM789 0h-638v747h616v-88h-527v-228h277v-88h-277v-255h549v-88z" />
    <glyph glyph-name="Edieresis" unicode="&#xcb;" horiz-adv-x="852" 
d="M602 821h-93v101h93v-101zM420 821h-92v101h92v-101zM789 0h-638v747h616v-88h-527v-228h277v-88h-277v-255h549v-88z" />
    <glyph glyph-name="Egrave" unicode="&#xc8;" horiz-adv-x="852" 
d="M525 806h-88l-112 130h120zM789 0h-638v747h616v-88h-527v-228h277v-88h-277v-255h549v-88z" />
    <glyph glyph-name="Iacute" unicode="&#xcd;" horiz-adv-x="389" 
d="M318 936l-106 -130h-89l78 130h117zM241 0h-88v748h88v-748z" />
    <glyph glyph-name="Icircumflex" unicode="&#xce;" horiz-adv-x="389" 
d="M344 806h-90l-63 79l-63 -79h-84l93 130h112zM241 0h-88v748h88v-748z" />
    <glyph glyph-name="Idieresis" unicode="&#xcf;" horiz-adv-x="389" 
d="M332 821h-93v101h93v-101zM150 821h-92v101h92v-101zM241 0h-88v748h88v-748z" />
    <glyph glyph-name="Igrave" unicode="&#xcc;" horiz-adv-x="389" 
d="M268 806h-88l-112 130h120zM241 0h-88v748h88v-748z" />
    <glyph glyph-name="Ntilde" unicode="&#xd1;" horiz-adv-x="963" 
d="M662 915c-2 -61 -18 -105 -86 -105c-58 0 -121 31 -153 31c-23 0 -29 -16 -31 -36h-64c0 59 19 110 86 110c55 0 115 -34 148 -34c24 0 33 11 36 34h64zM815 0h-89l-487 608v-608h-88v747h88l487 -616v616h89v-747z" />
    <glyph glyph-name="Oacute" unicode="&#xd3;" horiz-adv-x="1000" 
d="M628 936l-106 -130h-89l78 130h117zM901 375c0 -228 -181 -394 -406 -394c-218 0 -401 168 -401 389c0 224 187 394 407 394s400 -165 400 -389zM812 373c0 174 -138 302 -310 302c-173 0 -319 -128 -319 -305c0 -173 145 -301 314 -301c173 0 315 127 315 304z" />
    <glyph glyph-name="Ocircumflex" unicode="&#xd4;" horiz-adv-x="1000" 
d="M663 806h-90l-63 79l-63 -79h-84l93 130h112zM901 375c0 -228 -181 -394 -406 -394c-218 0 -401 168 -401 389c0 224 187 394 407 394s400 -165 400 -389zM812 373c0 174 -138 302 -310 302c-173 0 -319 -128 -319 -305c0 -173 145 -301 314 -301c173 0 315 127 315 304z
" />
    <glyph glyph-name="Odieresis" unicode="&#xd6;" horiz-adv-x="1000" 
d="M636 821h-93v101h93v-101zM454 821h-92v101h92v-101zM901 375c0 -228 -181 -394 -406 -394c-218 0 -401 168 -401 389c0 224 187 394 407 394s400 -165 400 -389zM812 373c0 174 -138 302 -310 302c-173 0 -319 -128 -319 -305c0 -173 145 -301 314 -301
c173 0 315 127 315 304z" />
    <glyph glyph-name="Ograve" unicode="&#xd2;" horiz-adv-x="1000" 
d="M595 806h-88l-112 130h120zM901 375c0 -228 -181 -394 -406 -394c-218 0 -401 168 -401 389c0 224 187 394 407 394s400 -165 400 -389zM812 373c0 174 -138 302 -310 302c-173 0 -319 -128 -319 -305c0 -173 145 -301 314 -301c173 0 315 127 315 304z" />
    <glyph glyph-name="Otilde" unicode="&#xd5;" horiz-adv-x="1000" 
d="M655 915c-2 -61 -18 -105 -86 -105c-58 0 -121 31 -153 31c-23 0 -29 -16 -31 -36h-64c0 59 19 110 86 110c55 0 115 -34 148 -34c24 0 33 11 36 34h64zM901 375c0 -228 -181 -394 -406 -394c-218 0 -401 168 -401 389c0 224 187 394 407 394s400 -165 400 -389zM812 373
c0 174 -138 302 -310 302c-173 0 -319 -128 -319 -305c0 -173 145 -301 314 -301c173 0 315 127 315 304z" />
    <glyph glyph-name="Scaron" unicode="&#x160;" horiz-adv-x="833" 
d="M589 936l-95 -130h-112l-93 130h84l63 -78l63 78h90zM775 217c0 -181 -208 -236 -354 -236c-161 0 -267 46 -379 161l63 62c98 -97 176 -134 315 -134c92 0 266 27 266 150c0 90 -93 126 -169 127l-158 2c-94 1 -140 12 -185 41c-49 32 -77 90 -77 148
c0 165 186 225 322 225c122 0 219 -36 316 -110l-55 -69c-86 61 -158 90 -264 90c-80 0 -230 -32 -230 -136c0 -31 17 -62 44 -77c34 -18 57 -23 152 -24l111 -1c52 0 105 -5 153 -25c77 -32 129 -111 129 -194z" />
    <glyph glyph-name="Uacute" unicode="&#xda;" horiz-adv-x="963" 
d="M598 936l-106 -130h-89l78 130h117zM815 300c0 -64 -2 -133 -37 -189c-60 -98 -187 -130 -295 -130c-87 0 -173 17 -242 74c-81 68 -88 142 -88 243v449h88v-447c0 -80 4 -119 35 -156c49 -58 135 -74 207 -74c76 0 170 14 215 82c18 27 29 54 29 148v447h88v-447z" />
    <glyph glyph-name="Ucircumflex" unicode="&#xdb;" horiz-adv-x="963" 
d="M633 806h-90l-63 79l-63 -79h-84l93 130h112zM815 300c0 -64 -2 -133 -37 -189c-60 -98 -187 -130 -295 -130c-87 0 -173 17 -242 74c-81 68 -88 142 -88 243v449h88v-447c0 -80 4 -119 35 -156c49 -58 135 -74 207 -74c76 0 170 14 215 82c18 27 29 54 29 148v447h88
v-447z" />
    <glyph glyph-name="Udieresis" unicode="&#xdc;" horiz-adv-x="963" 
d="M612 821h-93v101h93v-101zM430 821h-92v101h92v-101zM815 300c0 -64 -2 -133 -37 -189c-60 -98 -187 -130 -295 -130c-87 0 -173 17 -242 74c-81 68 -88 142 -88 243v449h88v-447c0 -80 4 -119 35 -156c49 -58 135 -74 207 -74c76 0 170 14 215 82c18 27 29 54 29 148
v447h88v-447z" />
    <glyph glyph-name="Ugrave" unicode="&#xd9;" horiz-adv-x="963" 
d="M555 806h-88l-112 130h120zM815 300c0 -64 -2 -133 -37 -189c-60 -98 -187 -130 -295 -130c-87 0 -173 17 -242 74c-81 68 -88 142 -88 243v449h88v-447c0 -80 4 -119 35 -156c49 -58 135 -74 207 -74c76 0 170 14 215 82c18 27 29 54 29 148v447h88v-447z" />
    <glyph glyph-name="Yacute" unicode="&#xdd;" horiz-adv-x="759" 
d="M528 936l-106 -130h-89l78 130h117zM745 747l-321 -403v-344h-88v344l-317 403h114l249 -316l249 316h114z" />
    <glyph glyph-name="Ydieresis" unicode="&#x178;" horiz-adv-x="759" 
d="M514 821h-93v101h93v-101zM332 821h-92v101h92v-101zM745 747l-321 -403v-344h-88v344l-317 403h114l249 -316l249 316h114z" />
    <glyph glyph-name="Zcaron" unicode="&#x17d;" horiz-adv-x="704" 
d="M495 936l-95 -130h-112l-93 130h84l63 -78l63 78h90zM676 0h-615l-38 76l520 583h-482v88h570l38 -73l-520 -586h527v-88z" />
    <glyph glyph-name="aacute" unicode="&#xe1;" horiz-adv-x="685" 
d="M462 705l-106 -130h-89l78 130h117zM668 0h-104l-66 121h-316l-64 -121h-100l280 518h88zM454 208l-113 211l-113 -211h226z" />
    <glyph glyph-name="acircumflex" unicode="&#xe2;" horiz-adv-x="685" 
d="M491 575h-90l-63 79l-63 -79h-84l93 130h112zM668 0h-104l-66 121h-316l-64 -121h-100l280 518h88zM454 208l-113 211l-113 -211h226z" />
    <glyph glyph-name="adieresis" unicode="&#xe4;" horiz-adv-x="685" 
d="M477 590h-93v101h93v-101zM295 590h-92v101h92v-101zM668 0h-104l-66 121h-316l-64 -121h-100l280 518h88zM454 208l-113 211l-113 -211h226z" />
    <glyph glyph-name="agrave" unicode="&#xe0;" horiz-adv-x="685" 
d="M410 575h-88l-112 130h120zM668 0h-104l-66 121h-316l-64 -121h-100l280 518h88zM454 208l-113 211l-113 -211h226z" />
    <glyph glyph-name="aring" unicode="&#xe5;" horiz-adv-x="685" 
d="M459 685c0 -62 -52 -111 -113 -111c-63 0 -115 51 -115 114s52 114 115 114c64 0 113 -54 113 -117zM668 0h-104l-66 121h-316l-64 -121h-100l280 518h88zM403 685c0 32 -25 60 -58 60c-31 0 -57 -26 -57 -57s24 -57 56 -57c31 0 59 22 59 54zM454 208l-113 211
l-113 -211h226z" />
    <glyph glyph-name="atilde" unicode="&#xe3;" horiz-adv-x="685" 
d="M510 684c-2 -61 -18 -105 -86 -105c-58 0 -121 31 -153 31c-23 0 -29 -16 -31 -36h-64c0 59 19 110 86 110c55 0 115 -34 148 -34c24 0 33 11 36 34h64zM668 0h-104l-66 121h-316l-64 -121h-100l280 518h88zM454 208l-113 211l-113 -211h226z" />
    <glyph glyph-name="ccedilla" unicode="&#xe7;" horiz-adv-x="741" 
d="M680 63c-87 -60 -142 -70 -246 -81l-37 -51c52 0 112 -9 112 -74c0 -72 -81 -92 -139 -92c-48 0 -73 9 -116 29l25 50c32 -17 48 -21 84 -21c20 0 52 6 52 32c0 23 -24 32 -43 32c-16 0 -30 -3 -45 -8l-21 27l58 79c-36 7 -73 15 -108 29c-98 38 -161 137 -161 241
c0 174 146 278 310 278c102 0 190 -35 269 -97l-47 -74c-71 50 -131 82 -221 82c-112 0 -223 -65 -223 -188c0 -129 119 -185 233 -185c85 0 155 25 225 73z" />
    <glyph glyph-name="eacute" unicode="&#xe9;" horiz-adv-x="685" 
d="M518 705l-106 -130h-89l78 130h117zM622 0h-466v518h456v-88h-368v-119h202v-88h-202v-135h378v-88z" />
    <glyph glyph-name="ecircumflex" unicode="&#xea;" horiz-adv-x="685" 
d="M535 575h-90l-63 79l-63 -79h-84l93 130h112zM622 0h-466v518h456v-88h-368v-119h202v-88h-202v-135h378v-88z" />
    <glyph glyph-name="edieresis" unicode="&#xeb;" horiz-adv-x="685" 
d="M522 590h-93v101h93v-101zM340 590h-92v101h92v-101zM622 0h-466v518h456v-88h-368v-119h202v-88h-202v-135h378v-88z" />
    <glyph glyph-name="egrave" unicode="&#xe8;" horiz-adv-x="685" 
d="M467 575h-88l-111 130h120zM622 0h-466v518h456v-88h-368v-119h202v-88h-202v-135h378v-88z" />
    <glyph glyph-name="iacute" unicode="&#xed;" horiz-adv-x="389" 
d="M325 705l-106 -130h-89l78 130h117zM240 0h-88v518h88v-518z" />
    <glyph glyph-name="icircumflex" unicode="&#xee;" horiz-adv-x="389" 
d="M348 575h-90l-63 79l-63 -79h-84l93 130h112zM240 0h-88v518h88v-518z" />
    <glyph glyph-name="idieresis" unicode="&#xef;" horiz-adv-x="389" 
d="M332 590h-93v101h93v-101zM150 590h-92v101h92v-101zM240 0h-88v518h88v-518z" />
    <glyph glyph-name="igrave" unicode="&#xec;" horiz-adv-x="389" 
d="M265 575h-88l-112 130h120zM240 0h-88v518h88v-518z" />
    <glyph glyph-name="ntilde" unicode="&#xf1;" horiz-adv-x="796" 
d="M563 684c-2 -61 -18 -105 -86 -105c-58 0 -121 31 -153 31c-23 0 -29 -16 -31 -36h-64c0 59 19 110 86 110c55 0 115 -34 148 -34c24 0 33 11 36 34h64zM651 0h-88l-324 385v-385h-88v518h89l323 -384v384h88v-518z" />
    <glyph glyph-name="oacute" unicode="&#xf3;" horiz-adv-x="833" 
d="M538 705l-106 -130h-89l78 130h117zM735 260c0 -178 -159 -278 -323 -278c-161 0 -312 100 -312 273v14c0 175 162 264 320 264c163 0 315 -97 315 -273zM646 259c0 127 -114 184 -227 184s-230 -60 -230 -187c0 -125 112 -184 224 -184s233 60 233 187z" />
    <glyph glyph-name="ocircumflex" unicode="&#xf4;" horiz-adv-x="833" 
d="M570 575h-90l-63 79l-63 -79h-84l93 130h112zM735 260c0 -178 -159 -278 -323 -278c-161 0 -312 100 -312 273v14c0 175 162 264 320 264c163 0 315 -97 315 -273zM646 259c0 127 -114 184 -227 184s-230 -60 -230 -187c0 -125 112 -184 224 -184s233 60 233 187z" />
    <glyph glyph-name="odieresis" unicode="&#xf6;" horiz-adv-x="833" 
d="M553 590h-93v101h93v-101zM371 590h-92v101h92v-101zM735 260c0 -178 -159 -278 -323 -278c-161 0 -312 100 -312 273v14c0 175 162 264 320 264c163 0 315 -97 315 -273zM646 259c0 127 -114 184 -227 184s-230 -60 -230 -187c0 -125 112 -184 224 -184s233 60 233 187z
" />
    <glyph glyph-name="ograve" unicode="&#xf2;" horiz-adv-x="833" 
d="M485 575h-88l-112 130h120zM735 260c0 -178 -159 -278 -323 -278c-161 0 -312 100 -312 273v14c0 175 162 264 320 264c163 0 315 -97 315 -273zM646 259c0 127 -114 184 -227 184s-230 -60 -230 -187c0 -125 112 -184 224 -184s233 60 233 187z" />
    <glyph glyph-name="otilde" unicode="&#xf5;" horiz-adv-x="833" 
d="M576 684c-2 -61 -18 -105 -86 -105c-58 0 -121 31 -153 31c-23 0 -29 -16 -31 -36h-64c0 59 19 110 86 110c55 0 115 -34 148 -34c24 0 33 11 36 34h64zM735 260c0 -178 -159 -278 -323 -278c-161 0 -312 100 -312 273v14c0 175 162 264 320 264c163 0 315 -97 315 -273z
M646 259c0 127 -114 184 -227 184s-230 -60 -230 -187c0 -125 112 -184 224 -184s233 60 233 187z" />
    <glyph glyph-name="scaron" unicode="&#x161;" horiz-adv-x="685" 
d="M493 705l-95 -130h-112l-93 130h84l63 -78l63 78h90zM617 162c0 -147 -124 -180 -248 -180c-112 0 -220 20 -311 88l42 77c85 -54 153 -77 255 -77c99 0 169 14 169 83c0 13 -2 27 -9 39c-17 26 -66 33 -144 33c-155 0 -175 7 -205 21c-47 22 -72 72 -72 123
c0 126 127 164 232 164c96 0 179 -22 263 -68l-41 -79c-74 44 -134 60 -220 60c-84 0 -138 -20 -138 -71c0 -12 2 -25 9 -35c14 -21 48 -29 149 -29c141 0 269 -12 269 -149z" />
    <glyph glyph-name="uacute" unicode="&#xfa;" horiz-adv-x="796" 
d="M518 705l-106 -130h-89l78 130h117zM652 226c0 -82 -6 -108 -32 -148c-45 -69 -142 -93 -219 -93c-71 0 -145 16 -198 66c-51 49 -54 108 -54 175v292h89v-292c0 -71 7 -88 23 -106c33 -37 100 -46 146 -46c48 0 111 12 140 54c12 17 17 34 17 98v292h88v-292z" />
    <glyph glyph-name="ucircumflex" unicode="&#xfb;" horiz-adv-x="796" 
d="M549 575h-90l-63 79l-63 -79h-84l93 130h112zM652 226c0 -82 -6 -108 -32 -148c-45 -69 -142 -93 -219 -93c-71 0 -145 16 -198 66c-51 49 -54 108 -54 175v292h89v-292c0 -71 7 -88 23 -106c33 -37 100 -46 146 -46c48 0 111 12 140 54c12 17 17 34 17 98v292h88v-292z
" />
    <glyph glyph-name="udieresis" unicode="&#xfc;" horiz-adv-x="796" 
d="M537 590h-93v101h93v-101zM355 590h-92v101h92v-101zM652 226c0 -82 -6 -108 -32 -148c-45 -69 -142 -93 -219 -93c-71 0 -145 16 -198 66c-51 49 -54 108 -54 175v292h89v-292c0 -71 7 -88 23 -106c33 -37 100 -46 146 -46c48 0 111 12 140 54c12 17 17 34 17 98v292h88
v-292z" />
    <glyph glyph-name="ugrave" unicode="&#xf9;" horiz-adv-x="796" 
d="M485 575h-88l-112 130h120zM652 226c0 -82 -6 -108 -32 -148c-45 -69 -142 -93 -219 -93c-71 0 -145 16 -198 66c-51 49 -54 108 -54 175v292h89v-292c0 -71 7 -88 23 -106c33 -37 100 -46 146 -46c48 0 111 12 140 54c12 17 17 34 17 98v292h88v-292z" />
    <glyph glyph-name="yacute" unicode="&#xfd;" horiz-adv-x="574" 
d="M428 705l-106 -130h-89l78 130h117zM558 518l-227 -285v-233h-88v233l-227 285h112l159 -201l159 201h112z" />
    <glyph glyph-name="ydieresis" unicode="&#xff;" horiz-adv-x="574" 
d="M422 590h-93v101h93v-101zM240 590h-92v101h92v-101zM558 518l-227 -285v-233h-88v233l-227 285h112l159 -201l159 201h112z" />
    <glyph glyph-name="zcaron" unicode="&#x17e;" horiz-adv-x="537" 
d="M418 705l-95 -130h-112l-93 130h84l63 -78l63 78h90zM524 0h-463l-42 69l367 361h-336v88h426l48 -69l-370 -360h370v-89z" />
    <glyph glyph-name="onethird" unicode="&#x2153;" horiz-adv-x="1204" 
d="M1089 108c0 -107 -164 -124 -235 -124c-82 0 -150 15 -225 63l39 54c70 -40 115 -50 188 -50c38 0 160 2 160 57c0 50 -106 57 -141 57h-49v66h48c31 0 116 6 116 49c0 45 -98 48 -129 48c-56 0 -91 -13 -149 -37l-33 57c68 33 115 46 183 46c63 0 200 -19 200 -111
c0 -35 -21 -60 -45 -80c36 -19 72 -49 72 -95zM794 718l-552 -758h-84l551 758h85zM189 265h-74v393h74v-393z" />
    <glyph glyph-name="one.superior" unicode="&#xb9;" horiz-adv-x="519" 
d="M297 265h-75v393h75v-393z" />
    <glyph glyph-name="two.superior" unicode="&#xb2;" horiz-adv-x="519" 
d="M458 265h-406v23c0 112 60 202 183 213c29 3 58 5 87 8c23 2 62 10 62 38c0 49 -83 54 -119 54c-66 0 -106 -12 -171 -43l-33 58c81 40 119 52 204 52c71 0 191 -24 191 -120c0 -70 -70 -101 -128 -106c-37 -4 -101 -5 -135 -19c-22 -10 -50 -31 -63 -93h328v-65z" />
    <glyph glyph-name="three.superior" unicode="&#xb3;" horiz-adv-x="519" 
d="M483 382c0 -107 -165 -124 -236 -124c-82 0 -149 15 -225 63l40 54c69 -40 114 -50 188 -50c37 0 160 2 160 57c0 50 -107 57 -142 57h-49v66h49c30 0 116 6 116 49c0 45 -99 48 -130 48c-55 0 -91 -13 -148 -37l-33 57c68 33 114 46 183 46c63 0 200 -19 200 -111
c0 -35 -21 -60 -45 -80c36 -19 72 -49 72 -95z" />
    <glyph glyph-name="Delta" unicode="&#x2206;" horiz-adv-x="929" 
d="M857 0h-799v43c115 219 232 438 348 657h103l348 -657v-43zM745 77c-89 165 -177 331 -265 497c-13 23 -16 44 -22 57h-4c-4 -13 -11 -34 -22 -55c-89 -167 -179 -332 -267 -499h580z" />
    <glyph glyph-name="Omega" unicode="&#x2126;" horiz-adv-x="968" 
d="M924 0h-326v74c87 49 233 144 233 309c0 126 -114 251 -340 251c-182 0 -345 -93 -345 -252c0 -165 148 -260 233 -308v-74h-328v74h227c-103 51 -226 151 -226 320c0 189 180 318 435 318c296 0 437 -149 437 -315c0 -155 -121 -273 -235 -323h235v-74z" />
    <glyph glyph-name="uni03BC" unicode="&#x3bc;" horiz-adv-x="796" 
d="M652 0h-88v53c-24 -28 -65 -68 -161 -68c-91 0 -142 35 -166 63v-200h-88v670h88v-292c0 -73 6 -87 23 -106c33 -36 100 -46 146 -46c48 0 111 13 141 54c11 15 17 34 17 98v292h88v-518z" />
    <glyph glyph-name="pi" unicode="&#x3c0;" horiz-adv-x="1071" 
d="M926 69l18 -61c-20 -8 -51 -16 -87 -16c-95 0 -147 48 -147 146v294h-342v-299c0 -53 -8 -98 -22 -133h-91c14 34 23 92 23 136v296c-47 -1 -110 -14 -149 -32c-3 8 -24 55 -27 63c37 18 114 37 185 37h658v-68h-145v-284c0 -57 24 -87 82 -87c11 0 32 4 44 8z" />
    <glyph glyph-name="Euro" unicode="&#x20ac;" 
d="M847 114c-95 -94 -186 -133 -318 -133c-162 0 -302 92 -349 235h-103l13 67h75c-1 14 -2 27 -2 41c0 8 0 15 1 22h-87l13 67h85c40 152 177 256 343 256c121 0 231 -45 320 -134l-62 -59c-77 68 -159 108 -262 108c-112 0 -210 -72 -248 -170h400l-13 -67h-400
c0 -7 -1 -14 -1 -21c0 -15 1 -29 3 -42h386l-13 -67h-354c45 -93 146 -150 259 -150c103 0 181 35 255 113z" />
    <glyph glyph-name="afii61289" unicode="&#x2113;" horiz-adv-x="684" 
d="M576 71c-29 -28 -99 -85 -193 -85c-50 0 -87 15 -112 44c-27 29 -36 75 -36 114v96c-26 -23 -52 -46 -78 -70c-11 17 -23 34 -34 50c38 33 75 65 112 98v208c0 111 45 202 153 202c90 0 116 -69 116 -114c0 -92 -51 -168 -131 -247c-18 -20 -42 -46 -55 -60v-154
c0 -64 29 -101 90 -101c60 0 110 47 129 65c13 -15 26 -31 39 -46zM434 596c0 50 -24 66 -47 66c-56 0 -69 -68 -69 -123v-154c11 13 36 44 46 56c46 61 70 119 70 155z" />
    <glyph glyph-name="estimated" unicode="&#x212e;" horiz-adv-x="813" 
d="M799 391h-599v-272c59 -56 129 -88 212 -88c169 0 236 91 296 179c14 -9 28 -17 41 -26c-68 -109 -156 -196 -337 -196c-225 0 -378 188 -378 404c0 222 146 405 386 405c237 0 383 -190 379 -406zM634 434v234c-47 41 -132 85 -213 85c-84 0 -165 -29 -221 -86v-233h434
z" />
    <glyph glyph-name="partialdiff" unicode="&#x2202;" horiz-adv-x="831" 
d="M726 447c0 -75 -11 -128 -29 -175c-59 -165 -180 -285 -357 -285c-141 0 -243 90 -243 222c0 218 194 286 321 286c115 0 190 -52 216 -106h3c2 14 2 30 2 50c0 111 -66 220 -206 220c-50 0 -111 -16 -151 -44c-9 21 -18 41 -27 61c31 22 104 52 199 52
c168 0 272 -123 272 -281zM620 311c-15 54 -71 119 -180 119c-132 0 -254 -72 -254 -217c0 -84 60 -155 163 -155c124 0 232 105 271 253z" />
    <glyph glyph-name="product" unicode="&#x220f;" horiz-adv-x="1049" 
d="M929 -230h-91v852h-627v-852h-90v930h808v-930z" />
    <glyph glyph-name="summation" unicode="&#x2211;" horiz-adv-x="903" 
d="M894 -230h-882v44c168 142 336 283 504 425c-159 137 -317 274 -476 411v50h823v-74h-666c147 -129 293 -257 440 -386c-154 -132 -309 -264 -463 -396h720v-74z" />
    <glyph glyph-name="uni2219" unicode="&#x2219;" horiz-adv-x="370" 
d="M254 325c0 -38 -31 -68 -68 -68c-38 0 -70 30 -70 68c0 37 31 69 68 69c39 0 70 -31 70 -69z" />
    <glyph glyph-name="radical" unicode="&#x221a;" horiz-adv-x="857" 
d="M810 729c-114 -247 -227 -494 -341 -741h-48c-74 118 -146 236 -220 354c-24 -16 -50 -32 -74 -48c-7 16 -14 31 -21 47c42 25 84 50 125 75c72 -115 142 -230 213 -344c99 218 199 438 298 657h68z" />
    <glyph glyph-name="infinity" unicode="&#x221e;" horiz-adv-x="1171" 
d="M1097 297c0 -106 -70 -205 -228 -205c-112 0 -210 64 -278 157h-2c-71 -96 -175 -157 -282 -157c-162 0 -228 98 -228 197c0 113 71 206 224 206c109 0 204 -50 285 -157h2c58 75 156 157 274 157c145 0 233 -75 233 -198zM1024 291c0 71 -39 140 -156 140
c-100 0 -183 -66 -240 -137c62 -84 149 -138 242 -138c115 0 154 69 154 135zM549 293c-65 93 -163 138 -245 138c-100 0 -151 -61 -151 -140c0 -80 65 -136 152 -136c89 0 178 52 244 138z" />
    <glyph glyph-name="integral" unicode="&#x222b;" horiz-adv-x="676" 
d="M577 662c-13 6 -41 17 -76 17c-82 0 -120 -47 -120 -118v-618c0 -147 -95 -195 -196 -195c-36 0 -86 9 -110 20c7 22 14 45 22 67c16 -7 50 -16 78 -16c75 0 117 42 117 118v619c0 134 77 193 191 193c46 0 92 -10 115 -21c-6 -22 -14 -44 -21 -66z" />
    <glyph glyph-name="approxequal" unicode="&#x2248;" 
d="M751 425c-44 -52 -96 -94 -182 -94c-46 0 -91 15 -133 37c-34 19 -77 39 -120 39c-55 0 -97 -39 -126 -75l-52 54c45 51 92 93 177 93c54 0 106 -21 136 -36c36 -20 80 -40 120 -40c55 0 97 37 128 74zM751 204c-44 -51 -96 -93 -182 -93c-46 0 -91 15 -133 37
c-34 18 -77 39 -120 39c-55 0 -97 -39 -126 -75l-52 53c45 51 92 94 177 94c54 0 106 -21 136 -37c36 -20 80 -39 120 -39c55 0 97 37 128 74z" />
    <glyph glyph-name="notequal" unicode="&#x2260;" 
d="M729 149h-337l-80 -143h-80l80 143h-152v72h198l86 150h-284v72h328l85 148h79l-84 -148h161v-72h-206l-86 -150h292v-72z" />
    <glyph glyph-name="lessequal" unicode="&#x2264;" 
d="M729 0h-569v72h569v-72zM729 134l-569 220v51l569 219v-78l-438 -165v-2l438 -167v-78z" />
    <glyph glyph-name="greaterequal" unicode="&#x2265;" 
d="M729 0h-569v72h569v-72zM729 353l-569 -219v78l437 165v2l-437 167v78l569 -220v-51z" />
    <glyph glyph-name="lozenge" unicode="&#x25ca;" horiz-adv-x="843" 
d="M782 350c-110 -117 -221 -233 -331 -350h-48c-111 116 -221 233 -332 349c111 117 221 234 332 351h48c110 -117 221 -233 331 -350zM696 349c-90 97 -179 193 -269 290c-90 -97 -180 -193 -270 -290c90 -97 180 -193 271 -290c89 97 179 193 268 290z" />
    <glyph glyph-name="uni00A0" unicode="&#xa0;" horiz-adv-x="370" 
 />
    <glyph glyph-name="uni00AD" unicode="&#xad;" horiz-adv-x="610" 
d="M471 209h-332v96h332v-96z" />
    <glyph glyph-name="uni02C9" unicode="&#x2c9;" horiz-adv-x="370" 
d="M320 610h-270v61h270v-61z" />
    <glyph glyph-name="A.alt" unicode="&#xe000;" horiz-adv-x="833" 
d="M814 0h-98l-122 257h-360l-90 -201c-46 -103 -123 -227 -315 -227h-45l5 89h48c119 0 177 71 224 169l314 663h88zM555 345l-136 298l-141 -298h277z" />
    <glyph glyph-name="orn.001" unicode="&#xe007;" horiz-adv-x="1296" 
d="M1234 262c0 -110 -85 -262 -276 -262c-131 0 -227 82 -319 170c-100 95 -196 194 -317 194s-213 -95 -213 -202c0 -94 55 -134 108 -134c32 0 46 27 52 39c-20 4 -59 20 -59 72c0 30 28 54 52 54c49 0 70 -36 70 -80c0 -52 -52 -113 -113 -113c-119 0 -157 102 -157 179
c0 109 85 264 276 264c149 0 265 -117 373 -218c82 -77 161 -145 263 -145c122 0 213 95 213 198c0 96 -55 137 -108 137c-32 0 -45 -27 -51 -40c19 -4 58 -20 58 -71c0 -30 -28 -55 -52 -55c-48 0 -70 36 -70 80c0 53 52 114 114 114c118 0 156 -105 156 -181z" />
    <glyph glyph-name="orn.002" unicode="&#xe008;" horiz-adv-x="1296" 
d="M1234 181c0 -76 -38 -181 -156 -181c-62 0 -114 61 -114 114c0 44 22 80 70 80c24 0 52 -25 52 -55c0 -51 -39 -67 -58 -71c6 -13 19 -40 51 -40c53 0 108 41 108 137c0 103 -91 198 -213 198c-102 0 -181 -68 -263 -145c-108 -101 -224 -218 -373 -218
c-191 0 -276 152 -276 261c0 77 38 182 157 182c61 0 113 -61 113 -113c0 -44 -21 -80 -70 -80c-24 0 -52 24 -52 54c0 52 39 68 59 72c-6 12 -20 39 -52 39c-53 0 -108 -40 -108 -137c0 -104 92 -199 213 -199s217 99 317 194c92 88 188 170 319 170
c191 0 276 -152 276 -262z" />
    <glyph glyph-name="ampersand.alt" unicode="&#xe003;" horiz-adv-x="667" 
d="M600 376l-76 4c26 -47 60 -101 60 -175c0 -129 -86 -221 -256 -221c-155 0 -273 88 -273 232c0 133 86 186 167 205v2c-44 18 -104 36 -104 131c0 120 125 172 223 172c90 0 135 -33 175 -58l-48 -73c-13 9 -63 43 -116 43c-65 0 -146 -24 -146 -91
c0 -76 122 -94 221 -94h173v-77zM486 206c0 65 -43 129 -58 153h-60c-59 0 -215 0 -215 -142c0 -96 75 -145 177 -145c96 0 156 47 156 134z" />
    <glyph glyph-name="s_t" unicode="&#xfb06;" horiz-adv-x="1000" 
d="M946 577h-174v-370h-75v370h-175v75h424v-75zM434 341c0 -78 -76 -144 -234 -144c-86 0 -182 26 -249 74l41 63c57 -34 102 -62 212 -62c115 0 155 37 155 71c0 40 -37 52 -87 55l-127 8c-84 5 -160 27 -160 132c0 58 80 124 226 124c69 0 130 -14 200 -57l-37 -63
c-63 36 -100 45 -170 45c-84 0 -144 -27 -144 -60s44 -43 93 -46l110 -6c97 -5 171 -44 171 -134z" />
    <glyph glyph-name="uni2015" unicode="&#x2015;" horiz-adv-x="1000" 
d="M1000 -25h-1000l1 25h999v-25z" />
    <glyph glyph-name="uni2215" unicode="&#x2215;" horiz-adv-x="313" 
d="M479 718l-552 -758h-84l551 758h85z" />
    <glyph glyph-name="Dquote" unicode="&#xe001;" horiz-adv-x="1056" 
d="M1081 659c0 -105 -111 -167 -123 -171l-7 11c18 15 90 70 90 120c0 29 -40 18 -69 29c-17 7 -37 22 -37 59c0 32 26 59 58 59c41 0 88 -38 88 -107zM854 375c0 -134 -72 -375 -346 -375h-368v750h368c256 0 346 -241 346 -375zM766 375c0 122 -87 287 -258 287h-280v-574
h280c171 0 258 167 258 287z" />
    <glyph glyph-name="Oquote" unicode="&#xe002;" horiz-adv-x="1111" 
d="M1117 659c0 -105 -111 -167 -123 -171l-7 11c18 15 90 70 90 120c0 29 -40 18 -69 29c-17 7 -37 22 -37 59c0 32 26 59 58 59c41 0 88 -38 88 -107zM903 375c0 -211 -173 -391 -403 -391s-403 180 -403 391s172 391 403 391c230 0 403 -180 403 -391zM815 375
c0 166 -135 303 -315 303s-315 -137 -315 -303s135 -303 315 -303s315 137 315 303z" />
    <glyph glyph-name="c.superior" unicode="&#xe004;" horiz-adv-x="481" 
d="M483 355c-20 -12 -105 -70 -245 -70c-150 0 -258 94 -258 236c0 132 116 229 258 229c131 0 207 -58 245 -87l-47 -64c-54 36 -120 71 -198 71c-113 0 -178 -67 -178 -149c0 -74 56 -156 178 -156c107 0 180 43 206 59z" />
    <glyph glyph-name="capostraphe" unicode="&#xe005;" horiz-adv-x="759" 
d="M142 659c0 -105 -111 -167 -123 -171l-7 11c18 15 90 70 90 120c0 29 -40 18 -69 29c-17 7 -37 22 -37 59c0 32 26 59 58 59c41 0 88 -38 88 -107zM698 64c-21 -14 -108 -80 -263 -80c-189 0 -322 110 -322 276c0 161 136 274 310 274c145 0 227 -65 269 -97l-47 -74
c-56 37 -115 83 -222 83c-137 0 -222 -86 -222 -192c0 -91 75 -182 233 -182c121 0 198 55 225 73z" />
    <glyph glyph-name="nd" unicode="&#xe006;" horiz-adv-x="1222" 
d="M1157 425c0 -145 -117 -218 -253 -218h-231v445h231c127 0 253 -78 253 -227zM504 207h-70l-294 324v-324h-75v445h67l297 -327v327h75v-445zM1082 425c0 95 -75 152 -178 152h-156v-295h156c92 0 178 46 178 143z" />
    <glyph glyph-name="r.period" unicode="&#xe009;" horiz-adv-x="556" 
d="M651 359c0 -36 -29 -64 -64 -64c-36 0 -64 28 -64 64c0 35 28 64 64 64s64 -29 64 -64zM478 305h-90l-120 178h-183v-178h-75v445h299c69 0 155 -24 155 -132c0 -92 -70 -115 -110 -129zM389 618c0 44 -34 57 -104 57h-200v-117h200c65 0 104 11 104 60z" />
    <glyph glyph-name="rd" unicode="&#xe00a;" horiz-adv-x="1222" 
d="M1176 425c0 -145 -117 -218 -253 -218h-231v445h231c127 0 253 -78 253 -227zM529 207h-90l-120 178h-183v-178h-75v445h299c69 0 155 -24 155 -132c0 -92 -70 -115 -110 -129zM1101 425c0 95 -75 152 -178 152h-156v-295h156c92 0 178 46 178 143zM440 520
c0 44 -34 57 -104 57h-200v-117h200c55 0 104 11 104 60z" />
    <glyph glyph-name="rs.period" unicode="&#xe00b;" horiz-adv-x="1148" 
d="M1221 359c0 -36 -29 -64 -64 -64c-36 0 -64 28 -64 64c0 35 28 64 64 64c35 0 64 -29 64 -64zM1040 439c0 -78 -76 -144 -234 -144c-86 0 -182 26 -249 74l41 63c57 -34 102 -62 212 -62c115 0 155 37 155 71c0 40 -37 52 -87 55l-127 8c-84 5 -160 27 -160 132
c0 58 80 124 226 124c69 0 130 -14 200 -57l-37 -63c-63 36 -100 45 -170 45c-84 0 -144 -27 -144 -60s44 -43 93 -46l110 -6c97 -5 171 -44 171 -134zM478 305h-90l-120 178h-183v-178h-75v445h299c69 0 155 -24 155 -132c0 -92 -70 -115 -110 -129zM389 618
c0 44 -34 57 -104 57h-200v-117h200c65 0 104 11 104 60z" />
    <glyph glyph-name="s.period" unicode="&#xe00c;" horiz-adv-x="593" 
d="M620 359c0 -36 -29 -64 -64 -64c-36 0 -64 28 -64 64c0 35 28 64 64 64c35 0 64 -29 64 -64zM439 439c0 -78 -76 -144 -234 -144c-86 0 -182 26 -249 74l41 63c57 -34 102 -62 212 -62c115 0 155 37 155 71c0 40 -37 52 -87 55l-127 8c-84 5 -160 27 -160 132
c0 58 80 124 226 124c69 0 130 -14 200 -57l-37 -63c-63 36 -100 45 -170 45c-84 0 -144 -27 -144 -60s44 -43 93 -46l110 -6c97 -5 171 -44 171 -134z" />
    <glyph glyph-name="sapostraphe" unicode="&#xe00d;" horiz-adv-x="759" 
d="M143 659c0 -105 -111 -167 -123 -171l-7 11c18 15 90 70 90 120c0 29 -40 18 -69 29c-17 7 -37 22 -37 59c0 32 26 59 58 59c41 0 88 -38 88 -107zM692 159c0 -149 -139 -175 -255 -175c-177 0 -270 64 -304 88l42 77c60 -36 118 -77 264 -77c93 0 158 20 158 78
c0 66 -34 69 -228 73c-118 3 -200 36 -200 144c0 87 65 167 239 167c126 0 221 -51 256 -69l-41 -79c-43 24 -100 60 -214 60c-96 0 -145 -25 -145 -69c0 -50 18 -66 167 -66c234 0 261 -71 261 -152z" />
    <glyph glyph-name="th" unicode="&#xe00e;" horiz-adv-x="1204" 
d="M1051 207h-75v189h-288v-189h-75v445h75v-181h288v181h75v-445zM450 577h-174v-370h-75v370h-175v75h424v-75z" />
    <glyph glyph-name="uni03A9" unicode="&#x3a9;" horiz-adv-x="968" 
d="M924 0h-326v74c87 49 233 144 233 309c0 126 -114 251 -340 251c-182 0 -345 -93 -345 -252c0 -165 148 -260 233 -308v-74h-328v74h227c-103 51 -226 151 -226 320c0 189 180 318 435 318c296 0 437 -149 437 -315c0 -155 -121 -273 -235 -323h235v-74z" />
    <glyph glyph-name="uni2105" unicode="&#x2105;" horiz-adv-x="1204" 
d="M1158 189c0 -141 -124 -205 -230 -205c-158 0 -230 121 -230 205c0 151 133 205 230 205c120 0 230 -82 230 -205zM919 705l-539 -758h-66l539 758h66zM481 325c-16 -10 -83 -57 -200 -57c-145 0 -246 80 -246 196c0 128 106 204 238 204c108 0 171 -46 203 -69l-36 -53
c-37 27 -77 62 -161 62c-118 0 -179 -63 -179 -143c0 -73 58 -137 178 -137c94 0 152 42 173 55zM1093 189c0 76 -68 145 -165 145c-96 0 -165 -63 -165 -145c0 -78 68 -145 165 -145c101 0 165 69 165 145z" />
    <glyph glyph-name="uni2160" unicode="&#x2160;" horiz-adv-x="352" 
d="M220 0h-88v652h88v-652z" />
    <glyph glyph-name="uni2164" unicode="&#x2164;" horiz-adv-x="759" 
d="M730 652l-311 -652h-77l-313 652h100l253 -526l250 526h98z" />
    <glyph glyph-name="uni2169" unicode="&#x2169;" horiz-adv-x="741" 
d="M709 0h-113l-226 288l-225 -288h-113l282 359l-228 293h113l172 -221l177 221h113l-235 -291z" />
  </font>
</defs>
</svg>
